<svg width="118" height="133" viewBox="0 0 118 133" fill="none" xmlns="http://www.w3.org/2000/svg">
<path d="M65.3213 0.91394C55.4304 1.16875 46.2513 3.47275 37.4865 7.90023C23.3142 15.067 12.499 26.6507 6.12463 41.4833C2.28939 50.4232 0.462067 59.5542 0.462067 69.8001C0.462067 81.5005 2.93745 91.8632 8.02632 101.408C12.9983 110.741 20.0739 118.237 28.8811 123.493C38.039 128.961 48.0255 131.785 59.5312 132.167C73.8417 132.645 88.4496 129.385 99.2648 123.291C99.9341 122.909 101.315 122.049 102.335 121.38L104.173 120.159L103.716 119.681C102.686 118.64 101.241 117.95 100.072 117.95C99.1798 117.95 98.468 118.195 96.2369 119.256C87.6847 123.302 78.8243 125.436 68.0622 126.03C65.0875 126.189 58.6069 126.105 56.6627 125.871C51.2127 125.223 46.3788 123.949 41.7892 121.964C29.5717 116.644 19.9676 107.471 14.1138 95.4944C9.94925 86.9685 8.31316 78.9736 8.6425 68.7383C8.79124 64.3746 9.13121 60.9663 9.81114 57.006C11.6916 46.1656 16.3342 35.495 22.698 27.3833C24.2916 25.3554 25.4815 24.0282 27.4894 22.0215C31.9833 17.5409 36.6472 14.2282 42.3629 11.4465C47.9724 8.72839 53.0718 7.29504 59.7968 6.55181C61.8047 6.32884 68.9334 6.36069 70.8988 6.6049C82.2771 7.99579 91.6899 12.349 98.8398 19.5157C104.205 24.8988 108.008 31.97 109.411 39.1793C109.963 42.0354 110.112 43.5855 110.176 47.153C110.335 56.5919 108.816 65.0222 105.352 73.7816C104.619 75.6503 103.026 79.016 102.123 80.6087C99.0948 85.9386 95.302 90.2069 91.1906 92.8825C89.9157 93.7106 87.0578 95.1546 85.4005 95.8129C83.297 96.641 81.9265 96.9596 80.3541 96.9702C78.8668 96.9808 78.155 96.8109 77.56 96.3013C77.3688 96.142 77.0182 95.8872 76.7739 95.7173C75.8921 95.1334 74.2029 93.3602 73.2149 92.0012C73.0024 91.7039 72.7368 91.3429 72.6199 91.1943C72.3331 90.8227 71.1644 89.0496 71.0794 88.8584C71.0369 88.7735 70.8032 88.3913 70.5589 88.009C70.3145 87.6268 69.9639 87.0322 69.7833 86.6819C69.6027 86.3315 69.3265 85.8537 69.1777 85.6201C68.5934 84.6964 66.118 79.6425 66.118 79.3664C66.118 79.2815 66.0756 79.1965 66.0224 79.1753C65.8418 79.1116 63.7277 74.1532 62.6971 71.3927C61.8154 69.0144 61.6029 68.4092 61.1673 67.0926C60.6042 65.3726 60.5299 64.9798 60.6998 64.64C60.8804 64.2896 62.6759 62.1661 63.7808 60.9876C65.0344 59.6498 67.3186 57.3883 69.624 55.2011C70.697 54.1818 72.0568 52.8652 72.6518 52.2813L73.7248 51.2195L73.6823 50.6886C73.6504 50.2852 73.5654 50.0834 73.3317 49.8286C72.843 49.3296 72.1737 49.0323 71.4407 49.0111C70.8457 49.0005 70.7501 49.0323 70.1339 49.457C69.7621 49.7224 69.2521 50.0728 68.9865 50.2533C68.7209 50.4338 68.4447 50.6356 68.3597 50.7205C68.2747 50.7948 68.0835 50.9435 67.9347 51.039C67.6798 51.1983 65.6081 52.8334 65.4806 52.9714C65.4487 53.0032 65.215 53.2156 64.9494 53.4386C62.0703 55.923 58.3838 59.6923 55.9297 62.6333C55.3241 63.3659 54.6229 64.1941 54.3573 64.4913L53.8793 65.0222L54.113 64.5975C58.1395 57.3776 64.5988 45.4011 64.7369 44.9021C64.7794 44.7535 64.7794 44.3394 64.7369 43.9678C64.482 41.8761 63.0796 42.8105 60.6786 46.654C58.9363 49.4358 55.8128 55.0418 52.1263 61.9962C51.0002 64.1304 50.0759 65.8185 50.0759 65.7442C50.0759 65.5743 50.6708 63.6844 51.5208 61.1787C52.1901 59.2038 52.5938 58.1846 53.6349 55.8381C53.9111 55.2223 54.3892 54.0968 54.6973 53.343C55.0054 52.5785 55.4835 51.4106 55.7597 50.7417C57.5445 46.4098 59.34 41.4833 60.5511 37.5761C60.9761 36.1852 61.6454 34.2634 61.7516 34.136C61.7941 34.0723 61.9003 33.8387 61.9641 33.6264C62.0385 33.4034 62.2084 33.0212 62.3465 32.777C62.4847 32.5221 62.6971 32.1187 62.8246 31.8639C63.154 31.2162 63.8233 30.3668 64.1632 30.1332C64.9069 29.6448 66.9361 29.8572 69.9958 30.7278C70.2933 30.8127 70.7182 30.9083 70.952 30.9508C71.1857 30.9826 71.5256 31.0569 71.6956 31.0994C72.7368 31.4073 74.7872 31.7152 76.5826 31.8426C78.41 31.9807 83.7113 31.6515 86.0804 31.248C86.5798 31.1631 87.281 31.0463 87.6315 30.9932C88.5983 30.834 91.9024 29.889 92.646 29.5493C92.8267 29.4643 93.0179 29.4006 93.0816 29.4006C93.2304 29.4006 94.4202 28.2221 94.6433 27.8292C94.7602 27.6487 94.8771 27.4895 94.9089 27.4895C95.0258 27.4895 95.8863 25.5889 95.9926 25.1218C96.1944 24.198 96.2051 23.4761 96.0245 22.4355C95.6314 20.0997 95.0577 18.4646 94.6221 18.4646C94.5371 18.4646 93.9315 18.7407 93.2835 19.0804C92.6248 19.4096 91.8599 19.7918 91.5624 19.9086C90.1069 20.5244 87.6209 21.3101 86.0911 21.6499C85.5386 21.7666 84.8906 21.9153 84.6568 21.9684C83.0526 22.3294 80.9278 22.6585 79.0261 22.839C77.1563 23.0089 68.9759 23.0089 67.446 22.839C66.8617 22.7753 65.8843 22.6691 65.2681 22.6054C64.6519 22.5417 63.6958 22.4249 63.1433 22.34C62.1659 22.1913 61.1673 22.0639 59.3718 21.8516C57.8845 21.6711 54.198 21.4587 52.5088 21.4481C49.9059 21.4269 45.4332 21.8304 43.0641 22.2869C37.0084 23.4761 33.0882 24.92 29.1892 27.3833C26.9157 28.8273 24.9928 30.5367 23.4098 32.5328C21.0619 35.495 19.8508 38.4573 19.4258 42.3539C19.3514 42.9804 19.3621 46.3567 19.4364 46.8663C19.787 49.3084 20.2332 50.5081 21.5187 52.483C21.8481 52.982 23.0273 54.3941 23.3673 54.702C24.7803 55.9549 26.4801 56.9529 28.0843 57.4626C28.5199 57.6112 29.5292 57.8342 30.3154 57.9616C31.569 58.174 31.9833 58.1952 33.5769 58.1421C34.5756 58.1102 35.7017 58.0253 36.0735 57.9616C37.7415 57.6537 39.8132 56.8362 39.9407 56.4433C40.0256 56.1779 39.8132 55.785 39.5157 55.6576C39.282 55.5514 39.1863 55.5727 37.4865 55.9443C36.5197 56.1566 36.2329 56.1673 34.2462 56.1142C32.2383 56.0611 31.6115 55.9868 30.3154 55.647C29.816 55.5196 28.9767 55.2223 28.7536 55.1055C28.6474 55.0524 28.2968 54.8719 27.9781 54.7233C26.0445 53.7677 24.4191 52.0583 23.7285 50.2639C23.601 49.9136 23.4417 49.5313 23.3992 49.4145C23.346 49.2977 23.2079 48.735 23.0911 48.1511C22.7299 46.3567 22.8467 43.3307 23.3567 41.6107C23.4523 41.2922 23.5691 40.8462 23.6329 40.6233C23.686 40.4003 23.7816 40.1455 23.8347 40.0393C23.8879 39.9438 24.0578 39.5828 24.2066 39.243C24.3553 38.8926 24.6634 38.3299 24.8971 37.9795C25.1309 37.6292 25.3221 37.3212 25.3221 37.2894C25.3221 37.1514 26.6076 35.6437 27.5 34.7518C28.4668 33.775 30.2197 32.3735 30.4747 32.3735C30.5491 32.3735 30.6341 32.331 30.6553 32.2886C30.6978 32.1718 32.2702 31.2799 33.0245 30.9295C33.375 30.7809 33.7363 30.611 33.8319 30.5685C34.5437 30.2182 36.2329 29.6023 37.1147 29.3581C37.4334 29.2732 37.9646 29.1245 38.2833 29.0396C38.9845 28.8485 41.9804 28.2964 43.3828 28.1053C44.0734 28.0097 45.7732 27.9672 48.7585 27.9672C53.4224 27.9672 53.4756 27.9779 53.4756 28.4875C53.4756 29.029 52.36 32.8938 51.7226 34.5501C50.5646 37.5654 50.0865 38.8183 49.7997 39.6465C49.7678 39.7633 49.5447 40.3791 49.3216 41.0267C49.0879 41.6638 48.7054 42.7892 48.4611 43.5218C48.2273 44.2544 47.983 44.8915 47.9405 44.9552C47.8874 45.0083 47.8449 45.1463 47.8449 45.2525C47.8449 45.3693 47.6961 45.9214 47.5155 46.4841C47.3349 47.0468 47.1118 47.7264 47.0374 48.0024C46.9525 48.2891 46.825 48.735 46.74 49.0111C46.3575 50.3276 45.3376 54.1712 44.6577 56.8999C43.6484 60.9026 43.3297 62.1449 43.0747 62.9518C42.8197 63.7481 42.2779 65.8398 41.6299 68.526C40.6525 72.6243 40.1106 77.434 40.4081 79.4195C40.6737 81.2457 40.8862 81.5961 42.2779 82.6578C43.1491 83.3161 43.6909 83.5391 44.6258 83.624C45.7626 83.7302 46.6975 83.3692 47.643 82.4561C48.5354 81.5961 48.716 81.3094 49.874 79.0373C50.469 77.8694 51.0852 76.7121 51.2552 76.4572C51.4251 76.2024 51.5632 75.9795 51.5632 75.9476C51.5632 75.9157 51.7757 75.5548 52.0413 75.1513C52.3069 74.7478 52.5194 74.3868 52.5194 74.355C52.5194 74.3231 52.7638 73.9515 53.0506 73.5268C53.3481 73.1021 53.5818 72.7305 53.5818 72.688C53.5818 72.5075 54.283 71.6581 54.4317 71.6581C54.538 71.6581 54.6867 71.8386 54.8036 72.1041C54.8992 72.3589 55.0798 72.7305 55.1966 72.9322C55.3029 73.134 55.4729 73.4737 55.5685 73.6755C55.6535 73.8772 56.1103 74.8115 56.5671 75.7352C57.024 76.6696 57.4064 77.4871 57.4064 77.5615C57.4064 77.6358 57.4489 77.7101 57.502 77.7313C57.5552 77.742 57.8632 78.3153 58.2032 78.9842C58.5326 79.6531 58.9256 80.4176 59.0744 80.683C59.2125 80.9484 59.5737 81.6386 59.8712 82.2225C60.5405 83.5391 60.3599 83.2312 61.8366 85.6944C62.5272 86.8517 63.1646 87.9241 63.2496 88.0834C63.3452 88.2426 63.802 88.954 64.2695 89.6548C64.7476 90.3555 65.2575 91.12 65.4062 91.3535C65.5656 91.5871 65.725 91.8313 65.7781 91.8844C65.8312 91.9481 66.2455 92.5002 66.713 93.1054C68.689 95.7279 71.0582 98.1593 72.928 99.4971C73.8523 100.166 74.0966 100.325 74.1498 100.325C74.1816 100.325 74.5747 100.495 75.0209 100.708C76.6783 101.472 78.5481 101.78 80.9916 101.674C84.8481 101.493 89.3845 100.145 94.1122 97.7453C98.9035 95.3139 104.088 90.536 107.647 85.2485C112.991 77.3279 116.306 67.3899 117.612 55.3603C117.75 54.0331 117.793 52.6953 117.804 49.2553C117.804 44.7535 117.761 43.9996 117.315 40.9206C116.125 32.5965 112.81 24.867 107.7 18.4646C106.266 16.6703 102.93 13.3151 101.177 11.9242C98.3086 9.64149 95.5995 7.92146 92.4123 6.36069C86.7285 3.57892 80.8216 1.93321 73.9373 1.21123C72.5137 1.06258 67.2973 0.818375 66.6492 0.86084C66.5005 0.87146 65.9056 0.8927 65.3213 0.91394Z" fill="#019ADE"/>
</svg>
