<svg width="27" height="27" viewBox="0 0 27 27" fill="none" xmlns="http://www.w3.org/2000/svg">
<path d="M3.54688 26.7197H23.4404C24.5068 26.7197 25.3151 26.4362 25.8652 25.8691C26.4238 25.3021 26.7031 24.4938 26.7031 23.4443V10.0254C26.7031 8.97591 26.4238 8.17188 25.8652 7.61328C25.3151 7.04622 24.5068 6.7627 23.4404 6.7627H3.54688C2.48893 6.7627 1.68066 7.04199 1.12207 7.60059C0.563477 8.15918 0.28418 8.96745 0.28418 10.0254V23.4443C0.28418 24.5192 0.563477 25.3317 1.12207 25.8818C1.68066 26.4404 2.48893 26.7197 3.54688 26.7197ZM3.10254 4.3252H23.8848C23.8848 4.16439 23.834 4.02051 23.7324 3.89355C23.6309 3.75814 23.4912 3.69043 23.3135 3.69043H3.67383C3.49609 3.69043 3.35221 3.75814 3.24219 3.89355C3.14062 4.02051 3.09408 4.16439 3.10254 4.3252ZM5.43848 1.58301H21.5488C21.5488 1.41374 21.4938 1.26562 21.3838 1.13867C21.2822 1.01172 21.1426 0.948242 20.9648 0.948242H6.02246C5.84473 0.948242 5.70085 1.01172 5.59082 1.13867C5.48926 1.26562 5.43848 1.41374 5.43848 1.58301ZM8.85352 21.9209V16.5762C8.85352 15.569 9.32747 15.0654 10.2754 15.0654V13.1738C10.2754 12.1413 10.5716 11.3161 11.1641 10.6982C11.7565 10.0719 12.5352 9.75879 13.5 9.75879C14.4648 9.75879 15.2435 10.0719 15.8359 10.6982C16.4284 11.3161 16.7246 12.1413 16.7246 13.1738V15.0654C17.681 15.0654 18.1592 15.569 18.1592 16.5762V21.9209C18.1592 22.9281 17.681 23.4316 16.7246 23.4316H10.2754C9.32747 23.4316 8.85352 22.9281 8.85352 21.9209ZM10.9229 15.0654H16.0771V13.1738C16.0771 12.3359 15.8402 11.6631 15.3662 11.1553C14.8923 10.6475 14.2702 10.3936 13.5 10.3936C12.7298 10.3936 12.1077 10.6475 11.6338 11.1553C11.1598 11.6631 10.9229 12.3359 10.9229 13.1738V15.0654Z" fill="#9A9999"/>
</svg>
