<svg width="28" height="21" viewBox="0 0 28 21" fill="none" xmlns="http://www.w3.org/2000/svg">
<path d="M16.6953 5.62891C16.6094 5.62891 16.5352 5.60156 16.4727 5.54688C16.418 5.49219 16.3906 5.42188 16.3906 5.33594C16.3906 5.25781 16.418 5.19141 16.4727 5.13672C16.5352 5.07422 16.6094 5.04297 16.6953 5.04297H23.6797C23.7734 5.04297 23.8477 5.07422 23.9023 5.13672C23.957 5.19141 23.9844 5.25781 23.9844 5.33594C23.9844 5.42188 23.957 5.49219 23.9023 5.54688C23.8477 5.60156 23.7734 5.62891 23.6797 5.62891H16.6953ZM16.6953 10.8672C16.6094 10.8672 16.5352 10.8398 16.4727 10.7852C16.418 10.7227 16.3906 10.6523 16.3906 10.5742C16.3906 10.4961 16.418 10.4258 16.4727 10.3633C16.5352 10.3008 16.6094 10.2695 16.6953 10.2695H23.6797C23.7734 10.2695 23.8477 10.3008 23.9023 10.3633C23.957 10.4258 23.9844 10.4961 23.9844 10.5742C23.9844 10.6523 23.957 10.7227 23.9023 10.7852C23.8477 10.8398 23.7734 10.8672 23.6797 10.8672H16.6953ZM16.6953 16.082C16.6094 16.082 16.5352 16.0547 16.4727 16C16.418 15.9453 16.3906 15.8789 16.3906 15.8008C16.3906 15.7148 16.418 15.6445 16.4727 15.5898C16.5352 15.5352 16.6094 15.5078 16.6953 15.5078H23.6797C23.7734 15.5078 23.8477 15.5352 23.9023 15.5898C23.957 15.6445 23.9844 15.7148 23.9844 15.8008C23.9844 15.8789 23.957 15.9453 23.9023 16C23.8477 16.0547 23.7734 16.082 23.6797 16.082H16.6953ZM3.55859 16.0938C3.44922 16.0938 3.37109 16.0625 3.32422 16C3.28516 15.9375 3.26562 15.8477 3.26562 15.7305C3.26562 15.4258 3.375 15.0312 3.59375 14.5469C3.8125 14.0547 4.14453 13.5586 4.58984 13.0586C5.03516 12.5586 5.59766 12.1406 6.27734 11.8047C6.95703 11.4609 7.75781 11.2891 8.67969 11.2891C9.60156 11.2891 10.4023 11.4609 11.082 11.8047C11.7617 12.1406 12.3242 12.5586 12.7695 13.0586C13.2148 13.5586 13.5469 14.0547 13.7656 14.5469C13.9844 15.0312 14.0938 15.4258 14.0938 15.7305C14.0938 15.8477 14.0703 15.9375 14.0234 16C13.9844 16.0625 13.9102 16.0938 13.8008 16.0938H3.55859ZM8.67969 10.4102C7.92969 10.4102 7.29297 10.1367 6.76953 9.58984C6.24609 9.03516 5.98438 8.33203 5.98438 7.48047C5.98438 6.95703 6.10547 6.47656 6.34766 6.03906C6.58984 5.60156 6.91406 5.25391 7.32031 4.99609C7.72656 4.73047 8.17969 4.59766 8.67969 4.59766C9.17969 4.59766 9.63281 4.73047 10.0391 4.99609C10.4453 5.25391 10.7695 5.60156 11.0117 6.03906C11.2539 6.47656 11.375 6.95703 11.375 7.48047C11.375 8.33203 11.1133 9.03516 10.5898 9.58984C10.0664 10.1367 9.42969 10.4102 8.67969 10.4102ZM3.47656 20.793H24.5117C25.5039 20.793 26.2539 20.5312 26.7617 20.0078C27.2773 19.4922 27.5352 18.75 27.5352 17.7812V3.29688C27.5352 2.32812 27.2773 1.58203 26.7617 1.05859C26.2539 0.535156 25.5039 0.273438 24.5117 0.273438H3.47656C2.49219 0.273438 1.74219 0.53125 1.22656 1.04688C0.71875 1.5625 0.464844 2.3125 0.464844 3.29688V17.7812C0.464844 18.7656 0.71875 19.5117 1.22656 20.0195C1.74219 20.5352 2.49219 20.793 3.47656 20.793Z" fill="#9A9999"/>
</svg>
