<svg width="24" height="23" viewBox="0 0 24 23" fill="none" xmlns="http://www.w3.org/2000/svg">
<path d="M4.67383 10.2021C4.60221 10.2021 4.53776 10.1771 4.48047 10.127C4.43034 10.0697 4.40527 10.0052 4.40527 9.93359C4.40527 9.85482 4.43034 9.79036 4.48047 9.74023C4.53776 9.6901 4.60221 9.66504 4.67383 9.66504H12.4727C12.5514 9.66504 12.6159 9.6901 12.666 9.74023C12.7161 9.79036 12.7412 9.85482 12.7412 9.93359C12.7412 10.0052 12.7161 10.0697 12.666 10.127C12.6159 10.1771 12.5514 10.2021 12.4727 10.2021H4.67383ZM4.67383 12.6621C4.60221 12.6621 4.53776 12.637 4.48047 12.5869C4.43034 12.5368 4.40527 12.4723 4.40527 12.3936C4.40527 12.3219 4.43034 12.2611 4.48047 12.2109C4.53776 12.1608 4.60221 12.1357 4.67383 12.1357H9.8623C9.94108 12.1357 10.0055 12.1608 10.0557 12.2109C10.1058 12.2611 10.1309 12.3219 10.1309 12.3936C10.1309 12.4723 10.1058 12.5368 10.0557 12.5869C10.0055 12.637 9.94108 12.6621 9.8623 12.6621H4.67383ZM17.0166 13.5752C16.5439 13.5752 16.1107 13.4606 15.7168 13.2314C15.3301 12.9951 15.0221 12.6836 14.793 12.2969C14.5638 11.903 14.4492 11.4697 14.4492 10.9971C14.4492 10.5244 14.5638 10.0947 14.793 9.70801C15.0221 9.31413 15.3301 9.0026 15.7168 8.77344C16.1107 8.53711 16.5439 8.41895 17.0166 8.41895C17.4893 8.41895 17.9189 8.53711 18.3057 8.77344C18.6924 9.0026 19.0003 9.31413 19.2295 9.70801C19.4658 10.0947 19.584 10.5244 19.584 10.9971C19.584 11.4697 19.4658 11.903 19.2295 12.2969C19.0003 12.6836 18.6924 12.9951 18.3057 13.2314C17.9189 13.4606 17.4893 13.5752 17.0166 13.5752ZM3.57812 22.1475H20.4111C21.3135 22.1475 21.9974 21.9076 22.4629 21.4277C22.9355 20.9479 23.1719 20.264 23.1719 19.376V8.02148C23.1719 7.13346 22.9355 6.45312 22.4629 5.98047C21.9974 5.50065 21.3135 5.26074 20.4111 5.26074H3.57812C2.68294 5.26074 1.99902 5.49707 1.52637 5.96973C1.05371 6.44238 0.817383 7.1263 0.817383 8.02148V19.376C0.817383 20.2855 1.05371 20.973 1.52637 21.4385C1.99902 21.9111 2.68294 22.1475 3.57812 22.1475ZM3.20215 3.19824H20.7871C20.7871 3.06217 20.7441 2.94043 20.6582 2.83301C20.5723 2.71842 20.4541 2.66113 20.3037 2.66113H3.68555C3.53516 2.66113 3.41341 2.71842 3.32031 2.83301C3.23438 2.94043 3.19499 3.06217 3.20215 3.19824ZM5.17871 0.87793H18.8105C18.8105 0.734701 18.764 0.609375 18.6709 0.501953C18.585 0.394531 18.4668 0.34082 18.3164 0.34082H5.67285C5.52246 0.34082 5.40072 0.394531 5.30762 0.501953C5.22168 0.609375 5.17871 0.734701 5.17871 0.87793Z" fill="#9A9999"/>
</svg>
