<svg width="18" height="22" viewBox="0 0 18 22" fill="none" xmlns="http://www.w3.org/2000/svg">
<path d="M3.81439 21.418H14.1855C16.207 21.418 17.2128 20.3926 17.2128 18.3613V9.49414H10.1425C8.89252 9.49414 8.29681 8.89844 8.29681 7.64844V0.480469H3.81439C1.80267 0.480469 0.787048 1.51562 0.787048 3.54688V18.3613C0.787048 20.4023 1.79291 21.418 3.81439 21.418ZM10.1718 8.15625H17.0956C17.037 7.75586 16.7538 7.36523 16.2851 6.88672L10.9042 1.4082C10.4453 0.939453 10.0449 0.65625 9.6347 0.587891V7.62891C9.6347 7.98047 9.81049 8.15625 10.1718 8.15625ZM5.17181 13.7422C4.79095 13.7422 4.50775 13.4688 4.50775 13.1074C4.50775 12.7461 4.79095 12.4629 5.17181 12.4629H12.8574C13.2285 12.4629 13.5117 12.7461 13.5117 13.1074C13.5117 13.4688 13.2285 13.7422 12.8574 13.7422H5.17181ZM5.17181 17.4434C4.79095 17.4434 4.50775 17.1699 4.50775 16.8086C4.50775 16.4473 4.79095 16.1641 5.17181 16.1641H12.8574C13.2285 16.1641 13.5117 16.4473 13.5117 16.8086C13.5117 17.1699 13.2285 17.4434 12.8574 17.4434H5.17181Z" fill="#9A9999"/>
</svg>
