<svg width="25" height="18" viewBox="0 0 25 18" fill="none" xmlns="http://www.w3.org/2000/svg">
<path d="M2.7627 17.3267H18.228C19.0073 17.3267 19.598 17.1195 20 16.7051C20.4082 16.2969 20.6123 15.7062 20.6123 14.9331V10.2852C20.5443 10.2852 20.467 10.2852 20.3804 10.2852C19.6506 10.2852 18.9671 10.1429 18.3301 9.8584C17.6992 9.56771 17.1426 9.16878 16.6602 8.66162C16.1839 8.15446 15.8283 7.57617 15.5933 6.92676H0.378418V14.9331C0.378418 15.7186 0.579427 16.3123 0.981445 16.7144C1.38965 17.1226 1.9834 17.3267 2.7627 17.3267ZM0.378418 6.46289H15.4355C15.3861 6.2526 15.3459 6.04232 15.3149 5.83203C15.284 5.61556 15.2686 5.3929 15.2686 5.16406C15.2686 4.77441 15.3118 4.39714 15.3984 4.03223C15.485 3.66732 15.6056 3.31787 15.7603 2.98389H9.13623C8.70947 2.98389 8.37858 2.94678 8.14355 2.87256C7.90853 2.79834 7.66423 2.63753 7.41064 2.39014L6.92822 1.94482C6.73031 1.74691 6.54785 1.60156 6.38086 1.50879C6.22005 1.40983 6.0376 1.34489 5.8335 1.31396C5.62939 1.27686 5.36963 1.2583 5.0542 1.2583H2.41943C1.73291 1.2583 1.21956 1.42839 0.879395 1.76855C0.54541 2.10254 0.378418 2.60661 0.378418 3.28076V6.46289ZM20.0371 9.59863H20.7607C20.8968 9.59863 21.0112 9.56152 21.104 9.4873C21.1968 9.4069 21.2586 9.29867 21.2896 9.1626L21.4844 8.31836C21.5462 8.2998 21.6081 8.27816 21.6699 8.25342C21.738 8.22249 21.8029 8.19466 21.8647 8.16992L22.6162 8.61523C22.7275 8.68945 22.842 8.72347 22.9595 8.71729C23.077 8.7111 23.1852 8.65544 23.2842 8.55029L23.7944 8.04004C23.8872 7.94108 23.9367 7.83285 23.9429 7.71533C23.9552 7.59782 23.9212 7.47721 23.8408 7.35352L23.4048 6.60205C23.4419 6.54639 23.4697 6.49072 23.4883 6.43506C23.513 6.37939 23.5378 6.32373 23.5625 6.26807L24.3975 6.06396C24.5335 6.03304 24.6418 5.9681 24.7222 5.86914C24.8026 5.77018 24.8428 5.65576 24.8428 5.52588V4.80225C24.8428 4.67236 24.7995 4.56413 24.7129 4.47754C24.6325 4.38477 24.5273 4.31982 24.3975 4.28271L23.5718 4.06934C23.5409 4.0013 23.513 3.93945 23.4883 3.88379C23.4635 3.82812 23.4388 3.77246 23.4141 3.7168L23.8779 2.95605C23.9521 2.84473 23.98 2.72721 23.9614 2.60352C23.9491 2.47982 23.8965 2.37467 23.8037 2.28809L23.2842 1.78711C23.1914 1.68815 23.0832 1.62939 22.9595 1.61084C22.842 1.59229 22.7306 1.61702 22.6255 1.68506L21.8647 2.1582C21.7905 2.12109 21.7225 2.09326 21.6606 2.07471C21.605 2.04997 21.5462 2.02832 21.4844 2.00977L21.2896 1.14697C21.2586 1.02327 21.1968 0.921224 21.104 0.84082C21.0112 0.760417 20.8968 0.720215 20.7607 0.720215H20.0371C19.9072 0.720215 19.7928 0.763509 19.6938 0.850098C19.5949 0.930501 19.533 1.02946 19.5083 1.14697L19.3042 1.99121C19.23 2.02214 19.1619 2.04997 19.1001 2.07471C19.0382 2.09326 18.9733 2.12109 18.9053 2.1582L18.1724 1.68506C18.0672 1.61702 17.9528 1.59229 17.8291 1.61084C17.7054 1.62939 17.5972 1.68815 17.5044 1.78711L17.0034 2.28809C16.9168 2.38086 16.8612 2.4891 16.8364 2.61279C16.8117 2.73031 16.8333 2.84473 16.9014 2.95605L17.3745 3.7168C17.356 3.77246 17.3312 3.83122 17.3003 3.89307C17.2756 3.94873 17.2539 4.00749 17.2354 4.06934L16.3911 4.28271C16.2612 4.31982 16.1561 4.38477 16.0757 4.47754C16.0015 4.57031 15.9644 4.67855 15.9644 4.80225V5.52588C15.9644 5.65576 16.0015 5.77018 16.0757 5.86914C16.1561 5.9681 16.2612 6.03304 16.3911 6.06396L17.2261 6.26807C17.257 6.32373 17.2848 6.37939 17.3096 6.43506C17.3343 6.49072 17.359 6.54639 17.3838 6.60205L16.9478 7.36279C16.8797 7.48031 16.8488 7.60091 16.855 7.72461C16.8674 7.84212 16.9168 7.94727 17.0034 8.04004L17.5044 8.55029C17.5972 8.65544 17.7023 8.7111 17.8198 8.71729C17.9435 8.71729 18.0641 8.68327 18.1816 8.61523L18.9331 8.16992C19.0011 8.20085 19.0661 8.22868 19.1279 8.25342C19.1898 8.27816 19.2485 8.2998 19.3042 8.31836L19.5083 9.1626C19.533 9.29248 19.5949 9.39762 19.6938 9.47803C19.7928 9.55843 19.9072 9.59863 20.0371 9.59863ZM20.3989 6.59277C19.9969 6.59277 19.6567 6.45361 19.3784 6.17529C19.1063 5.89697 18.9702 5.5599 18.9702 5.16406C18.9702 4.77441 19.1063 4.43734 19.3784 4.15283C19.6567 3.86833 19.9969 3.72298 20.3989 3.7168C20.7886 3.71061 21.1226 3.85286 21.4009 4.14355C21.6854 4.43424 21.8276 4.77441 21.8276 5.16406C21.8276 5.5599 21.6854 5.89697 21.4009 6.17529C21.1226 6.45361 20.7886 6.59277 20.3989 6.59277Z" fill="#9A9999"/>
</svg>
