<svg width="23" height="26" viewBox="0 0 23 26" fill="none" xmlns="http://www.w3.org/2000/svg">
<path d="M11.4883 25.8945C13.0586 25.8945 14.5273 25.5977 15.8945 25.0039C17.2617 24.418 18.4648 23.6055 19.5039 22.5664C20.5508 21.5195 21.3711 20.3125 21.9648 18.9453C22.5586 17.5703 22.8555 16.1016 22.8555 14.5391C22.8555 12.9766 22.5586 11.5117 21.9648 10.1445C21.3711 8.76953 20.5508 7.5625 19.5039 6.52344C18.4648 5.47656 17.2617 4.66016 15.8945 4.07422C14.5273 3.48047 13.0586 3.18359 11.4883 3.18359C9.92578 3.18359 8.45703 3.48047 7.08203 4.07422C5.71484 4.66016 4.51172 5.47656 3.47266 6.52344C2.43359 7.5625 1.61719 8.76953 1.02344 10.1445C0.429688 11.5117 0.132812 12.9766 0.132812 14.5391C0.132812 16.1016 0.425781 17.5703 1.01172 18.9453C1.60547 20.3125 2.42188 21.5195 3.46094 22.5664C4.50781 23.6055 5.71484 24.418 7.08203 25.0039C8.45703 25.5977 9.92578 25.8945 11.4883 25.8945ZM11.4883 15.7461C11.168 15.7461 10.8945 15.6328 10.668 15.4062C10.4492 15.1719 10.3398 14.8867 10.3398 14.5508C10.3398 14.3164 10.4102 14.1016 10.5508 13.9062C10.6992 13.7109 10.918 13.5508 11.207 13.4258V6.06641C11.207 5.98047 11.2344 5.91406 11.2891 5.86719C11.3516 5.8125 11.418 5.78516 11.4883 5.78516C11.582 5.78516 11.6562 5.8125 11.7109 5.86719C11.7734 5.91406 11.8047 5.98047 11.8047 6.06641V13.4609C12.0938 13.5781 12.3047 13.7344 12.4375 13.9297C12.5781 14.1172 12.6484 14.3242 12.6484 14.5508C12.6484 14.8945 12.5352 15.1797 12.3086 15.4062C12.0898 15.6328 11.8164 15.7461 11.4883 15.7461ZM10.9961 3.72266H11.9922V0.96875C11.9922 0.820312 11.9453 0.695313 11.8516 0.59375C11.7578 0.492187 11.6367 0.441406 11.4883 0.441406C11.3477 0.441406 11.2305 0.492187 11.1367 0.59375C11.043 0.695313 10.9961 0.820312 10.9961 0.96875V3.72266ZM18.9766 6.71094L19.6797 7.4375L21.7188 5.38672C21.8438 5.26953 21.9062 5.13672 21.9062 4.98828C21.9062 4.87109 21.8555 4.76562 21.7539 4.67188C21.6602 4.57031 21.543 4.51953 21.4023 4.51953C21.2539 4.51953 21.1289 4.57422 21.0273 4.68359L18.9766 6.71094Z" fill="#9A9999"/>
</svg>
