<svg width="30" height="19" viewBox="0 0 30 19" fill="none" xmlns="http://www.w3.org/2000/svg">
<path d="M13.792 18.8691H28.4014C28.9027 18.8691 29.293 18.7796 29.5723 18.6006C29.8516 18.4215 29.9912 18.1029 29.9912 17.6445C29.9912 16.9642 29.7871 16.248 29.3789 15.4961C28.9707 14.7441 28.3799 14.0387 27.6064 13.3799C26.833 12.7139 25.8949 12.1768 24.792 11.7686C23.6963 11.3532 22.4645 11.1455 21.0967 11.1455C19.7288 11.1455 18.4935 11.3532 17.3906 11.7686C16.2949 12.1768 15.3604 12.7139 14.5869 13.3799C13.8135 14.0387 13.2227 14.7441 12.8145 15.4961C12.4062 16.248 12.2021 16.9642 12.2021 17.6445C12.2021 18.1029 12.3418 18.4215 12.6211 18.6006C12.9004 18.7796 13.2907 18.8691 13.792 18.8691ZM21.1289 9.21191C21.9167 9.21191 22.6221 9.00781 23.2451 8.59961C23.8682 8.19141 24.3623 7.63997 24.7275 6.94531C25.0928 6.24349 25.2754 5.45931 25.2754 4.59277C25.2754 3.76921 25.0892 3.01367 24.7168 2.32617C24.3444 1.63867 23.8467 1.08724 23.2236 0.671875C22.6006 0.25651 21.9023 0.0488281 21.1289 0.0488281C20.3555 0.0488281 19.6536 0.25651 19.0234 0.671875C18.3932 1.08724 17.8919 1.63867 17.5195 2.32617C17.1471 3.01367 16.9645 3.76562 16.9717 4.58203C16.9717 5.45573 17.1543 6.24349 17.5195 6.94531C17.8848 7.63997 18.3789 8.19141 19.002 8.59961C19.6322 9.00781 20.3411 9.21191 21.1289 9.21191ZM2.39453 18.8691H11.9336C11.6328 18.7116 11.4538 18.4108 11.3965 17.9668C11.3392 17.5299 11.3965 17.0179 11.5684 16.4307C11.7402 15.8363 12.0195 15.2311 12.4062 14.6152C12.8001 13.9922 13.3014 13.4193 13.9102 12.8965C13.3158 12.3809 12.5889 11.9512 11.7295 11.6074C10.8773 11.2637 9.87826 11.0918 8.73242 11.0918C7.53646 11.0918 6.46224 11.2852 5.50977 11.6719C4.55729 12.0514 3.74447 12.5563 3.07129 13.1865C2.39811 13.8167 1.88249 14.515 1.52441 15.2812C1.1735 16.0404 0.998047 16.8031 0.998047 17.5693C0.998047 18.0348 1.11979 18.3678 1.36328 18.5684C1.60677 18.7689 1.95052 18.8691 2.39453 18.8691ZM8.75391 9.44824C9.44141 9.44824 10.0573 9.27279 10.6016 8.92188C11.1458 8.5638 11.5755 8.08398 11.8906 7.48242C12.2129 6.8737 12.374 6.1862 12.374 5.41992C12.374 4.70378 12.2129 4.0485 11.8906 3.4541C11.5684 2.85254 11.1315 2.37272 10.5801 2.01465C10.0358 1.64941 9.42708 1.4668 8.75391 1.4668C8.08073 1.4668 7.47201 1.64941 6.92773 2.01465C6.38346 2.37272 5.9502 2.85254 5.62793 3.4541C5.30566 4.0485 5.14811 4.70378 5.15527 5.41992C5.15527 6.1862 5.31283 6.8737 5.62793 7.48242C5.94303 8.08398 6.36914 8.5638 6.90625 8.92188C7.45052 9.27279 8.06641 9.44824 8.75391 9.44824Z" fill="#9A9999"/>
</svg>
