<svg width="21" height="21" viewBox="0 0 21 21" fill="none" xmlns="http://www.w3.org/2000/svg">
<path d="M1.75781 9.49609H7.89844C8.39062 9.49609 8.76562 9.37891 9.02344 9.14453C9.28906 8.90234 9.42188 8.51172 9.42188 7.97266V1.83203C9.42188 1.29297 9.28906 0.90625 9.02344 0.671875C8.76562 0.429687 8.39062 0.308594 7.89844 0.308594H1.75781C1.26562 0.308594 0.890625 0.429687 0.632812 0.671875C0.375 0.90625 0.246094 1.29297 0.246094 1.83203V7.97266C0.246094 8.51172 0.375 8.90234 0.632812 9.14453C0.890625 9.37891 1.26562 9.49609 1.75781 9.49609ZM13.0898 9.49609H19.2305C19.7227 9.49609 20.0977 9.37891 20.3555 9.14453C20.6211 8.90234 20.7539 8.51172 20.7539 7.97266V1.83203C20.7539 1.29297 20.6211 0.90625 20.3555 0.671875C20.0977 0.429687 19.7227 0.308594 19.2305 0.308594H13.0898C12.5977 0.308594 12.2227 0.429687 11.9648 0.671875C11.707 0.90625 11.5781 1.29297 11.5781 1.83203V7.97266C11.5781 8.51172 11.707 8.90234 11.9648 9.14453C12.2227 9.37891 12.5977 9.49609 13.0898 9.49609ZM1.75781 20.8281H7.89844C8.39062 20.8281 8.76562 20.707 9.02344 20.4648C9.28906 20.2305 9.42188 19.8438 9.42188 19.3047V13.1523C9.42188 12.6211 9.28906 12.2383 9.02344 12.0039C8.76562 11.7617 8.39062 11.6406 7.89844 11.6406H1.75781C1.26562 11.6406 0.890625 11.7617 0.632812 12.0039C0.375 12.2383 0.246094 12.6211 0.246094 13.1523V19.3047C0.246094 19.8438 0.375 20.2305 0.632812 20.4648C0.890625 20.707 1.26562 20.8281 1.75781 20.8281ZM13.0898 20.8281H19.2305C19.7227 20.8281 20.0977 20.707 20.3555 20.4648C20.6211 20.2305 20.7539 19.8438 20.7539 19.3047V13.1523C20.7539 12.6211 20.6211 12.2383 20.3555 12.0039C20.0977 11.7617 19.7227 11.6406 19.2305 11.6406H13.0898C12.5977 11.6406 12.2227 11.7617 11.9648 12.0039C11.707 12.2383 11.5781 12.6211 11.5781 13.1523V19.3047C11.5781 19.8438 11.707 20.2305 11.9648 20.4648C12.2227 20.707 12.5977 20.8281 13.0898 20.8281Z" fill="#9A9999"/>
</svg>
