<svg width="28" height="23" viewBox="0 0 28 23" fill="none" xmlns="http://www.w3.org/2000/svg">
<path d="M7.35059 16.0029H8.87598C9.12663 16.0029 9.33431 15.9385 9.49902 15.8096C9.6709 15.6807 9.78906 15.4909 9.85352 15.2402L10.208 13.7256C10.2796 13.6969 10.3512 13.6683 10.4229 13.6396C10.5016 13.611 10.5732 13.5824 10.6377 13.5537L11.9805 14.3701C12.2025 14.499 12.4173 14.5527 12.625 14.5312C12.8398 14.5026 13.0368 14.3988 13.2158 14.2197L14.3008 13.1455C14.487 12.9665 14.5908 12.7731 14.6123 12.5654C14.6338 12.3506 14.5765 12.1322 14.4404 11.9102L13.6133 10.5889C13.6419 10.5101 13.6742 10.4349 13.71 10.3633C13.7458 10.2845 13.778 10.2093 13.8066 10.1377L15.3213 9.77246C15.5791 9.71517 15.7689 9.60417 15.8906 9.43945C16.0195 9.26758 16.084 9.05632 16.084 8.80566V7.30176C16.084 6.77181 15.8298 6.44596 15.3213 6.32422L13.7959 5.95898C13.7744 5.88737 13.7458 5.81576 13.71 5.74414C13.6813 5.67253 13.6491 5.59733 13.6133 5.51855L14.4404 4.18652C14.5765 3.97168 14.6338 3.75684 14.6123 3.54199C14.5908 3.32715 14.4834 3.13379 14.29 2.96191L13.2158 1.8877C13.0368 1.7015 12.8398 1.59408 12.625 1.56543C12.4173 1.53678 12.2025 1.59408 11.9805 1.7373L10.6377 2.55371C10.5732 2.5179 10.5016 2.48568 10.4229 2.45703C10.3512 2.42839 10.2796 2.40332 10.208 2.38184L9.85352 0.867188C9.78906 0.602214 9.6709 0.405273 9.49902 0.276367C9.33431 0.147461 9.12663 0.0830078 8.87598 0.0830078H7.35059C7.09277 0.0830078 6.88151 0.147461 6.7168 0.276367C6.55208 0.405273 6.4375 0.602214 6.37305 0.867188L6.01855 2.38184C5.94694 2.40332 5.87174 2.43197 5.79297 2.46777C5.72135 2.49642 5.65332 2.52507 5.58887 2.55371L4.24609 1.7373C4.01693 1.59408 3.7985 1.53678 3.59082 1.56543C3.38314 1.59408 3.18978 1.7015 3.01074 1.8877L1.92578 2.96191C1.73958 3.13379 1.63574 3.32715 1.61426 3.54199C1.59277 3.75684 1.65007 3.97168 1.78613 4.18652L2.60254 5.51855C2.57389 5.59733 2.54167 5.67253 2.50586 5.74414C2.47005 5.81576 2.44141 5.88737 2.41992 5.95898L0.894531 6.32422C0.386068 6.44596 0.131836 6.77181 0.131836 7.30176V8.80566C0.131836 9.05632 0.196289 9.26758 0.325195 9.43945C0.454102 9.60417 0.64388 9.71517 0.894531 9.77246L2.41992 10.1377C2.44141 10.2093 2.47005 10.2845 2.50586 10.3633C2.54167 10.4349 2.57389 10.5101 2.60254 10.5889L1.78613 11.9102C1.65007 12.1322 1.59277 12.3506 1.61426 12.5654C1.63574 12.7731 1.73958 12.9665 1.92578 13.1455L3.01074 14.2197C3.18978 14.3988 3.38314 14.5026 3.59082 14.5312C3.7985 14.5527 4.01693 14.499 4.24609 14.3701L5.58887 13.5537C5.65332 13.5824 5.72135 13.611 5.79297 13.6396C5.87174 13.6683 5.94694 13.6969 6.01855 13.7256L6.37305 15.2402C6.4375 15.4909 6.55208 15.6807 6.7168 15.8096C6.88151 15.9385 7.09277 16.0029 7.35059 16.0029ZM8.10254 11.1152C7.53678 11.1152 7.02116 10.9792 6.55566 10.707C6.09017 10.4349 5.71777 10.0661 5.43848 9.60059C5.16634 9.13509 5.03027 8.61589 5.03027 8.04297C5.03027 7.47721 5.16634 6.96159 5.43848 6.49609C5.71777 6.0306 6.09017 5.66178 6.55566 5.38965C7.02116 5.11035 7.53678 4.9707 8.10254 4.9707C8.67546 4.9707 9.19466 5.11035 9.66016 5.38965C10.1257 5.66178 10.4945 6.0306 10.7666 6.49609C11.0459 6.96159 11.1855 7.47721 11.1855 8.04297C11.1855 8.61589 11.0459 9.13509 10.7666 9.60059C10.4945 10.0661 10.1257 10.4349 9.66016 10.707C9.19466 10.9792 8.67546 11.1152 8.10254 11.1152ZM20.6064 22.4268H21.7236C21.9814 22.4268 22.182 22.373 22.3252 22.2656C22.4684 22.1582 22.5615 22.0007 22.6045 21.793L22.8623 20.4609C22.9339 20.4251 23.0055 20.3929 23.0771 20.3643C23.1559 20.3428 23.2311 20.3105 23.3027 20.2676L24.4307 21.0303C24.6097 21.1449 24.7887 21.1878 24.9678 21.1592C25.1468 21.1305 25.3258 21.0267 25.5049 20.8477L26.2891 20.0635C26.4609 19.8916 26.5612 19.7161 26.5898 19.5371C26.6185 19.3581 26.5755 19.179 26.4609 19L25.709 17.8613C25.7448 17.7897 25.7734 17.7217 25.7949 17.6572C25.8236 17.5856 25.8522 17.514 25.8809 17.4424L27.2236 17.1738C27.6462 17.0879 27.8574 16.7943 27.8574 16.293V15.165C27.8574 14.6637 27.6462 14.3701 27.2236 14.2842L25.8916 14.0049C25.8271 13.8402 25.7663 13.7005 25.709 13.5859L26.4609 12.4473C26.5755 12.2754 26.6185 12.0999 26.5898 11.9209C26.5612 11.7419 26.4609 11.5628 26.2891 11.3838L25.5049 10.5996C25.3258 10.4206 25.1468 10.3203 24.9678 10.2988C24.7887 10.2702 24.6097 10.3096 24.4307 10.417L23.3027 11.1797C23.2311 11.1439 23.1559 11.1117 23.0771 11.083C23.0055 11.0544 22.9339 11.0257 22.8623 10.9971L22.6045 9.6543C22.5615 9.45378 22.4684 9.2998 22.3252 9.19238C22.182 9.08496 21.9814 9.03125 21.7236 9.03125H20.6064C20.3415 9.03125 20.1374 9.08496 19.9941 9.19238C19.8509 9.2998 19.7614 9.45378 19.7256 9.6543L19.457 11.0078C19.3854 11.0293 19.3102 11.0579 19.2314 11.0938C19.1598 11.1224 19.0918 11.151 19.0273 11.1797L17.8887 10.417C17.7096 10.3096 17.5306 10.2702 17.3516 10.2988C17.1797 10.3203 17.0007 10.4206 16.8145 10.5996L16.041 11.3838C15.862 11.5628 15.7546 11.7419 15.7188 11.9209C15.6901 12.0999 15.7367 12.2754 15.8584 12.4473L16.6211 13.5859C16.5781 13.6576 16.5423 13.7292 16.5137 13.8008C16.4922 13.8724 16.4671 13.9404 16.4385 14.0049L15.0957 14.2842C14.8952 14.3271 14.7376 14.4238 14.623 14.5742C14.5156 14.7174 14.4619 14.9144 14.4619 15.165V16.293C14.4619 16.5436 14.5156 16.7441 14.623 16.8945C14.7376 17.0378 14.8952 17.1309 15.0957 17.1738L16.4385 17.4424C16.4671 17.514 16.4922 17.5856 16.5137 17.6572C16.5423 17.7217 16.5745 17.7897 16.6104 17.8613L15.8584 19C15.7438 19.179 15.7008 19.3581 15.7295 19.5371C15.7581 19.7161 15.862 19.8916 16.041 20.0635L16.8145 20.8477C17.0007 21.0267 17.1797 21.1305 17.3516 21.1592C17.5306 21.1878 17.7096 21.1449 17.8887 21.0303L19.0273 20.2676C19.0918 20.3105 19.1598 20.3428 19.2314 20.3643C19.3102 20.3929 19.3854 20.4251 19.457 20.4609L19.7256 21.793C19.7614 22.0007 19.8509 22.1582 19.9941 22.2656C20.1374 22.373 20.3415 22.4268 20.6064 22.4268ZM21.1543 17.9043C20.5599 17.9043 20.0479 17.6895 19.6182 17.2598C19.1885 16.8301 18.9736 16.318 18.9736 15.7236C18.9736 15.1292 19.1885 14.6172 19.6182 14.1875C20.0479 13.7578 20.5599 13.543 21.1543 13.543C21.7559 13.543 22.2715 13.7578 22.7012 14.1875C23.1309 14.6172 23.3457 15.1292 23.3457 15.7236C23.3457 16.318 23.1309 16.8301 22.7012 17.2598C22.2715 17.6895 21.7559 17.9043 21.1543 17.9043Z" fill="#9A9999"/>
</svg>
