<svg width="25" height="25" viewBox="0 0 25 25" fill="none" xmlns="http://www.w3.org/2000/svg">
<path d="M12.5 24.293C14.1094 24.293 15.6211 23.9844 17.0352 23.3672C18.457 22.7578 19.707 21.9141 20.7852 20.8359C21.8633 19.75 22.7109 18.5 23.3281 17.0859C23.9453 15.6641 24.2539 14.1484 24.2539 12.5391C24.2539 10.9297 23.9453 9.41797 23.3281 8.00391C22.7109 6.58203 21.8633 5.33203 20.7852 4.25391C19.707 3.16797 18.457 2.32031 17.0352 1.71094C15.6133 1.09375 14.0977 0.785156 12.4883 0.785156C10.8789 0.785156 9.36328 1.09375 7.94141 1.71094C6.52734 2.32031 5.28125 3.16797 4.20312 4.25391C3.125 5.33203 2.27734 6.58203 1.66016 8.00391C1.05078 9.41797 0.746094 10.9297 0.746094 12.5391C0.746094 14.1484 1.05078 15.6641 1.66016 17.0859C2.27734 18.5 3.125 19.75 4.20312 20.8359C5.28906 21.9141 6.53906 22.7578 7.95312 23.3672C9.375 23.9844 10.8906 24.293 12.5 24.293ZM12.5 22.7812C11.0781 22.7812 9.75 22.5156 8.51562 21.9844C7.28125 21.4531 6.19531 20.7188 5.25781 19.7812C4.32031 18.8438 3.58594 17.7578 3.05469 16.5234C2.53125 15.2812 2.26953 13.9531 2.26953 12.5391C2.26953 11.125 2.53125 9.80078 3.05469 8.56641C3.58594 7.32422 4.31641 6.23438 5.24609 5.29688C6.18359 4.35156 7.26953 3.61719 8.50391 3.09375C9.74609 2.5625 11.0742 2.29688 12.4883 2.29688C13.9102 2.29688 15.2383 2.5625 16.4727 3.09375C17.7148 3.61719 18.8047 4.35156 19.7422 5.29688C20.6797 6.23438 21.4141 7.32422 21.9453 8.56641C22.4766 9.80078 22.7422 11.125 22.7422 12.5391C22.7422 13.9531 22.4766 15.2812 21.9453 16.5234C21.4219 17.7578 20.6875 18.8438 19.7422 19.7812C18.8047 20.7188 17.7148 21.4531 16.4727 21.9844C15.2383 22.5156 13.9141 22.7812 12.5 22.7812ZM6.47656 12.5156C6.47656 12.6953 6.5625 12.8672 6.73438 13.0312L10.9062 17.2148C11.0312 17.3477 11.1914 17.4141 11.3867 17.4141C11.5664 17.4141 11.7188 17.3516 11.8438 17.2266C11.9688 17.0938 12.0312 16.9375 12.0312 16.7578C12.0312 16.5625 11.957 16.3984 11.8086 16.2656L9.96875 14.4375L8.51562 13.125L10.6836 13.1953H17.8672C18.0625 13.1953 18.2227 13.1328 18.3477 13.0078C18.4805 12.875 18.5469 12.7109 18.5469 12.5156C18.5469 12.3203 18.4805 12.1562 18.3477 12.0234C18.2227 11.8906 18.0625 11.8242 17.8672 11.8242H10.6836L8.52734 11.9062L9.96875 10.5938L11.8086 8.76562C11.957 8.61719 12.0312 8.45312 12.0312 8.27344C12.0312 8.08594 11.9688 7.93359 11.8438 7.81641C11.7188 7.69141 11.5664 7.62891 11.3867 7.62891C11.1914 7.62891 11.0312 7.69141 10.9062 7.81641L6.73438 11.9883C6.5625 12.1602 6.47656 12.3359 6.47656 12.5156Z" fill="#BD8817"/>
</svg>
