<svg width="19" height="19" viewBox="0 0 19 19" fill="none" xmlns="http://www.w3.org/2000/svg">
<path d="M9.53809 18.6191C10.7627 18.6191 11.9141 18.3848 12.9922 17.916C14.0762 17.4473 15.0312 16.7998 15.8574 15.9736C16.6836 15.1475 17.3311 14.1953 17.7998 13.1172C18.2686 12.0332 18.5029 10.8789 18.5029 9.6543C18.5029 8.42969 18.2686 7.27832 17.7998 6.2002C17.3311 5.11621 16.6836 4.16113 15.8574 3.33496C15.0312 2.50879 14.0762 1.86133 12.9922 1.39258C11.9082 0.923828 10.7539 0.689453 9.5293 0.689453C8.30469 0.689453 7.15039 0.923828 6.06641 1.39258C4.98828 1.86133 4.03613 2.50879 3.20996 3.33496C2.38965 4.16113 1.74512 5.11621 1.27637 6.2002C0.807617 7.27832 0.573242 8.42969 0.573242 9.6543C0.573242 10.8789 0.807617 12.0332 1.27637 13.1172C1.74512 14.1953 2.39258 15.1475 3.21875 15.9736C4.04492 16.7998 4.99707 17.4473 6.0752 17.916C7.15918 18.3848 8.31348 18.6191 9.53809 18.6191ZM9.53809 17.125C8.50098 17.125 7.53125 16.9316 6.62891 16.5449C5.72656 16.1582 4.93262 15.625 4.24707 14.9453C3.56738 14.2598 3.03418 13.4658 2.64746 12.5635C2.2666 11.6611 2.07617 10.6914 2.07617 9.6543C2.07617 8.61719 2.2666 7.64746 2.64746 6.74512C3.03418 5.84277 3.56738 5.04883 4.24707 4.36328C4.92676 3.67773 5.71777 3.14453 6.62012 2.76367C7.52246 2.37695 8.49219 2.18359 9.5293 2.18359C10.5664 2.18359 11.5361 2.37695 12.4385 2.76367C13.3467 3.14453 14.1406 3.67773 14.8203 4.36328C15.5059 5.04883 16.042 5.84277 16.4287 6.74512C16.8154 7.64746 17.0088 8.61719 17.0088 9.6543C17.0088 10.6914 16.8154 11.6611 16.4287 12.5635C16.0479 13.4658 15.5146 14.2598 14.8291 14.9453C14.1436 15.625 13.3496 16.1582 12.4473 16.5449C11.5449 16.9316 10.5752 17.125 9.53809 17.125ZM8 14.5674H11.5771C11.7588 14.5674 11.9111 14.5088 12.0342 14.3916C12.1572 14.2744 12.2188 14.1279 12.2188 13.9521C12.2188 13.7764 12.1572 13.6299 12.0342 13.5127C11.9111 13.3955 11.7588 13.3369 11.5771 13.3369H10.4873V8.86328C10.4873 8.62305 10.4287 8.43262 10.3115 8.29199C10.1943 8.14551 10.0244 8.07227 9.80176 8.07227H8.14941C7.96777 8.07227 7.81543 8.13086 7.69238 8.24805C7.56934 8.36523 7.50781 8.51172 7.50781 8.6875C7.50781 8.86328 7.56934 9.00977 7.69238 9.12695C7.81543 9.24414 7.96777 9.30273 8.14941 9.30273H9.08984V13.3369H8C7.81836 13.3369 7.66602 13.3955 7.54297 13.5127C7.41992 13.6299 7.3584 13.7764 7.3584 13.9521C7.3584 14.1279 7.41992 14.2744 7.54297 14.3916C7.66602 14.5088 7.81836 14.5674 8 14.5674ZM9.45898 6.60449C9.78125 6.60449 10.0508 6.49316 10.2676 6.27051C10.4902 6.04785 10.6016 5.77832 10.6016 5.46191C10.6016 5.13965 10.4902 4.86719 10.2676 4.64453C10.0508 4.42188 9.78125 4.31055 9.45898 4.31055C9.14258 4.31055 8.87305 4.42188 8.65039 4.64453C8.42773 4.86719 8.31641 5.13965 8.31641 5.46191C8.31641 5.77832 8.42773 6.04785 8.65039 6.27051C8.87305 6.49316 9.14258 6.60449 9.45898 6.60449Z" fill="black"/>
</svg>
