<svg width="18" height="20" viewBox="0 0 18 20" fill="none" xmlns="http://www.w3.org/2000/svg">
<path d="M5.08008 19.5752H12.9287C13.4092 19.5752 13.8223 19.4111 14.168 19.083C14.5137 18.7607 14.6982 18.3623 14.7217 17.8877L15.4248 4.32617H16.9541C17.042 4.32617 17.1152 4.29688 17.1738 4.23828C17.2324 4.17383 17.2617 4.09766 17.2617 4.00977C17.2617 3.92188 17.2295 3.84863 17.165 3.79004C17.1064 3.73145 17.0361 3.70215 16.9541 3.70215H1.06348C0.981445 3.70215 0.905273 3.73438 0.834961 3.79883C0.770508 3.85742 0.738281 3.92773 0.738281 4.00977C0.738281 4.10352 0.770508 4.17969 0.834961 4.23828C0.905273 4.29688 0.981445 4.32617 1.06348 4.32617H2.60156L3.30469 17.8877C3.32812 18.3682 3.50977 18.7695 3.84961 19.0918C4.18945 19.4141 4.59961 19.5752 5.08008 19.5752ZM5.10645 18.9424C4.7959 18.9424 4.52637 18.834 4.29785 18.6172C4.0752 18.4004 3.95508 18.1396 3.9375 17.835L3.24316 4.32617H14.7568L14.0625 17.835C14.0508 18.1396 13.9307 18.4004 13.7021 18.6172C13.4736 18.834 13.2041 18.9424 12.8936 18.9424H5.10645ZM6.35449 16.9912C6.44238 16.9912 6.50977 16.9648 6.55664 16.9121C6.60938 16.8594 6.63574 16.7949 6.63574 16.7188L6.31055 6.5498C6.31055 6.47363 6.28418 6.41211 6.23145 6.36523C6.17871 6.31836 6.11426 6.29492 6.03809 6.29492C5.9502 6.29492 5.87988 6.32129 5.82715 6.37402C5.77441 6.4209 5.74805 6.48535 5.74805 6.56738L6.07324 16.7275C6.07324 16.8037 6.09668 16.8682 6.14355 16.9209C6.19629 16.9678 6.2666 16.9912 6.35449 16.9912ZM9.00879 16.9912C9.09668 16.9912 9.16699 16.9648 9.21973 16.9121C9.27246 16.8594 9.29883 16.7949 9.29883 16.7188V6.56738C9.29883 6.48535 9.27246 6.4209 9.21973 6.37402C9.16699 6.32129 9.09668 6.29492 9.00879 6.29492C8.92676 6.29492 8.85938 6.32129 8.80664 6.37402C8.75391 6.4209 8.72754 6.48535 8.72754 6.56738V16.7188C8.72754 16.7949 8.75391 16.8594 8.80664 16.9121C8.85938 16.9648 8.92676 16.9912 9.00879 16.9912ZM11.6631 17.0088C11.7451 17.0088 11.8125 16.9824 11.8652 16.9297C11.918 16.877 11.9443 16.8125 11.9443 16.7363L12.2607 6.58496C12.2666 6.49707 12.2432 6.42969 12.1904 6.38281C12.1377 6.33008 12.0674 6.30371 11.9795 6.30371C11.9033 6.30371 11.8389 6.32715 11.7861 6.37402C11.7334 6.4209 11.707 6.48242 11.707 6.55859L11.3818 16.7275C11.3818 16.8037 11.4053 16.8711 11.4521 16.9297C11.499 16.9824 11.5693 17.0088 11.6631 17.0088ZM5.37891 4.00098H6.0293V2.16406C6.0293 1.82422 6.13184 1.55762 6.33691 1.36426C6.54785 1.1709 6.84082 1.07422 7.21582 1.07422H10.7842C11.1592 1.07422 11.4521 1.1709 11.6631 1.36426C11.874 1.55762 11.9795 1.82422 11.9795 2.16406V4.00098H12.6299V2.14648C12.6299 1.61328 12.4658 1.19727 12.1377 0.898438C11.8154 0.599609 11.3643 0.450195 10.7842 0.450195H7.20703C6.64453 0.450195 6.19922 0.599609 5.87109 0.898438C5.54297 1.19727 5.37891 1.61328 5.37891 2.14648V4.00098Z" fill="black"/>
</svg>
