<svg width="23" height="23" viewBox="0 0 23 23" fill="none" xmlns="http://www.w3.org/2000/svg">
<path d="M0.381836 22.5566C0.508789 22.6836 0.655273 22.7666 0.821289 22.8057C0.99707 22.8545 1.16797 22.8545 1.33398 22.8057C1.5 22.7666 1.64648 22.6836 1.77344 22.5566L11.5 12.8447L21.2119 22.5566C21.3291 22.6836 21.4707 22.7666 21.6367 22.8057C21.8125 22.8545 21.9834 22.8594 22.1494 22.8203C22.3252 22.7812 22.4766 22.6934 22.6035 22.5566C22.7305 22.4297 22.8135 22.2832 22.8525 22.1172C22.8916 21.9512 22.8916 21.7852 22.8525 21.6191C22.8135 21.4434 22.7305 21.292 22.6035 21.165L12.8916 11.4531L22.6035 1.72656C22.7305 1.59961 22.8135 1.45312 22.8525 1.28711C22.9014 1.12109 22.9014 0.955078 22.8525 0.789062C22.8135 0.613281 22.7305 0.466797 22.6035 0.349609C22.4668 0.212891 22.3154 0.125 22.1494 0.0859375C21.9834 0.0371094 21.8125 0.0371094 21.6367 0.0859375C21.4707 0.125 21.3291 0.212891 21.2119 0.349609L11.5 10.0615L1.77344 0.349609C1.64648 0.212891 1.49512 0.125 1.31934 0.0859375C1.15332 0.0371094 0.987305 0.0371094 0.821289 0.0859375C0.655273 0.125 0.508789 0.212891 0.381836 0.349609C0.254883 0.466797 0.166992 0.613281 0.118164 0.789062C0.0791016 0.955078 0.0791016 1.12109 0.118164 1.28711C0.166992 1.45312 0.254883 1.59961 0.381836 1.72656L10.0938 11.4531L0.381836 21.165C0.254883 21.292 0.166992 21.4434 0.118164 21.6191C0.0791016 21.7852 0.0791016 21.9512 0.118164 22.1172C0.157227 22.2832 0.245117 22.4297 0.381836 22.5566Z" fill="black"/>
</svg>
