<svg width="17" height="24" viewBox="0 0 17 24" fill="none" xmlns="http://www.w3.org/2000/svg">
<path d="M3.41797 23.7305H14.1406C15 23.7305 15.6523 23.4961 16.0977 23.0273C16.5508 22.5664 16.7773 21.8711 16.7773 20.9414V12.8672C16.7773 11.9453 16.5508 11.2539 16.0977 10.793C15.6523 10.3242 15 10.0898 14.1406 10.0898H3.41797C2.55859 10.0898 1.90234 10.3242 1.44922 10.793C1.00391 11.2539 0.78125 11.9453 0.78125 12.8672V20.9414C0.78125 21.8711 1.00391 22.5664 1.44922 23.0273C1.90234 23.4961 2.55859 23.7305 3.41797 23.7305ZM3.47656 21.9609C3.22656 21.9609 3.03125 21.8828 2.89062 21.7266C2.75 21.5781 2.67969 21.3594 2.67969 21.0703V12.7383C2.67969 12.4492 2.75 12.2305 2.89062 12.082C3.03125 11.9336 3.22656 11.8594 3.47656 11.8594H14.082C14.3398 11.8594 14.5352 11.9336 14.668 12.082C14.8086 12.2305 14.8789 12.4492 14.8789 12.7383V21.0703C14.8789 21.3594 14.8086 21.5781 14.668 21.7266C14.5352 21.8828 14.3398 21.9609 14.082 21.9609H3.47656ZM2.83203 10.9922H4.69531V7.04297C4.69531 6.05859 4.88281 5.23047 5.25781 4.55859C5.63281 3.88672 6.12891 3.37891 6.74609 3.03516C7.37109 2.69141 8.04688 2.51953 8.77344 2.51953C9.50781 2.51953 10.1836 2.69141 10.8008 3.03516C11.4258 3.37891 11.9258 3.88672 12.3008 4.55859C12.6836 5.23047 12.875 6.05859 12.875 7.04297V10.9922H14.7266V7.28906C14.7266 5.82031 14.4414 4.60156 13.8711 3.63281C13.3086 2.66406 12.5742 1.94141 11.668 1.46484C10.7617 0.988281 9.79688 0.75 8.77344 0.75C7.75781 0.75 6.79688 0.988281 5.89062 1.46484C4.98438 1.94141 4.24609 2.66406 3.67578 3.63281C3.11328 4.60156 2.83203 5.82031 2.83203 7.28906V10.9922Z" fill="#878787"/>
</svg>
