<svg width="23" height="23" viewBox="0 0 23 23" fill="none" xmlns="http://www.w3.org/2000/svg">
<path d="M5.40625 7.12207C5.40625 7.29395 5.46875 7.44238 5.59375 7.56738C5.71875 7.68457 5.86719 7.74316 6.03906 7.74316H16.9492C17.1289 7.74316 17.2773 7.68457 17.3945 7.56738C17.5195 7.44238 17.582 7.29395 17.582 7.12207C17.582 6.9502 17.5195 6.80566 17.3945 6.68848C17.2773 6.56348 17.1289 6.50098 16.9492 6.50098H6.03906C5.86719 6.50098 5.71875 6.56348 5.59375 6.68848C5.46875 6.80566 5.40625 6.9502 5.40625 7.12207ZM5.40625 11.5635C5.40625 11.7432 5.46875 11.8916 5.59375 12.0088C5.71875 12.126 5.86719 12.1846 6.03906 12.1846H16.9492C17.1289 12.1846 17.2773 12.126 17.3945 12.0088C17.5195 11.8916 17.582 11.7432 17.582 11.5635C17.582 11.3916 17.5195 11.2471 17.3945 11.1299C17.2773 11.0049 17.1289 10.9424 16.9492 10.9424H6.03906C5.86719 10.9424 5.71875 11.0049 5.59375 11.1299C5.46875 11.2471 5.40625 11.3916 5.40625 11.5635ZM5.40625 16.0166C5.40625 16.1885 5.46875 16.3369 5.59375 16.4619C5.71875 16.5791 5.86719 16.6377 6.03906 16.6377H13.3047C13.4766 16.6377 13.6211 16.5791 13.7383 16.4619C13.8633 16.3369 13.9258 16.1885 13.9258 16.0166C13.9258 15.8369 13.8633 15.6885 13.7383 15.5713C13.6211 15.4541 13.4766 15.3955 13.3047 15.3955H6.03906C5.86719 15.3955 5.71875 15.4541 5.59375 15.5713C5.46875 15.6885 5.40625 15.8369 5.40625 16.0166ZM1 7.52051C1.48438 7.52051 1.72656 7.27441 1.72656 6.78223V3.85254C1.72656 3.17285 1.89844 2.66113 2.24219 2.31738C2.59375 1.97363 3.10156 1.80176 3.76562 1.80176H6.74219C7.23438 1.80176 7.48047 1.55957 7.48047 1.0752C7.48047 0.598633 7.23438 0.360352 6.74219 0.360352H3.73047C2.58984 0.360352 1.73047 0.645508 1.15234 1.21582C0.574219 1.78613 0.285156 2.6377 0.285156 3.77051V6.78223C0.285156 7.27441 0.523438 7.52051 1 7.52051ZM21.9766 7.52051C22.4609 7.52051 22.7031 7.27441 22.7031 6.78223V3.77051C22.7031 2.64551 22.4141 1.79785 21.8359 1.22754C21.2578 0.649414 20.3945 0.360352 19.2461 0.360352H16.2461C15.7539 0.360352 15.5078 0.598633 15.5078 1.0752C15.5078 1.55957 15.7539 1.80176 16.2461 1.80176H19.2109C19.8594 1.80176 20.3633 1.97363 20.7227 2.31738C21.082 2.66113 21.2617 3.17285 21.2617 3.85254V6.78223C21.2617 7.27441 21.5 7.52051 21.9766 7.52051ZM3.73047 22.7666H6.74219C7.23438 22.7666 7.48047 22.5283 7.48047 22.0518C7.48047 21.5674 7.23438 21.3252 6.74219 21.3252H3.76562C3.10156 21.3252 2.59375 21.1533 2.24219 20.8096C1.89844 20.4658 1.72656 19.9541 1.72656 19.2744V16.3447C1.72656 15.8525 1.48438 15.6064 1 15.6064C0.523438 15.6064 0.285156 15.8525 0.285156 16.3447V19.3447C0.285156 20.4775 0.574219 21.3291 1.15234 21.8994C1.73047 22.4775 2.58984 22.7666 3.73047 22.7666ZM16.2461 22.7666H19.2461C20.3945 22.7666 21.2578 22.4775 21.8359 21.8994C22.4141 21.3291 22.7031 20.4775 22.7031 19.3447V16.3447C22.7031 15.8525 22.4609 15.6064 21.9766 15.6064C21.5 15.6064 21.2617 15.8525 21.2617 16.3447V19.2744C21.2617 19.9541 21.082 20.4658 20.7227 20.8096C20.3633 21.1533 19.8594 21.3252 19.2109 21.3252H16.2461C15.7539 21.3252 15.5078 21.5674 15.5078 22.0518C15.5078 22.5283 15.7539 22.7666 16.2461 22.7666Z" fill="#BD8817"/>
</svg>
