<svg width="18" height="18" viewBox="0 0 18 18" fill="none" xmlns="http://www.w3.org/2000/svg">
<path d="M15.5005 13C14.7005 13 14.0005 13.4 13.5005 14L4.90049 9.60003C5.00049 9.40003 5.00049 9.20003 5.00049 9.00003C5.00049 8.80003 5.00049 8.60003 4.90049 8.40003L13.5005 4.00003C14.0005 4.60003 14.7005 5.00003 15.5005 5.00003C16.9005 5.00003 18.0005 3.90003 18.0005 2.50003C18.0005 1.10003 16.9005 3.05176e-05 15.5005 3.05176e-05C14.1005 3.05176e-05 13.0005 1.10003 13.0005 2.50003C13.0005 2.70003 13.0005 2.90003 13.1005 3.10003L4.50049 7.50003C4.00049 6.90003 3.30049 6.50003 2.50049 6.50003C1.10049 6.50003 0.000488281 7.60003 0.000488281 9.00003C0.000488281 10.4 1.10049 11.5 2.50049 11.5C3.30049 11.5 4.00049 11.1 4.50049 10.5L13.1005 14.8C13.0005 15.1 13.0005 15.3 13.0005 15.5C13.0005 16.9 14.1005 18 15.5005 18C16.9005 18 18.0005 16.9 18.0005 15.5C18.0005 14.1 16.9005 13 15.5005 13ZM15.5005 1.00003C16.3005 1.00003 17.0005 1.70003 17.0005 2.50003C17.0005 3.30003 16.3005 4.00003 15.5005 4.00003C14.7005 4.00003 14.0005 3.30003 14.0005 2.50003C14.0005 1.70003 14.7005 1.00003 15.5005 1.00003ZM2.50049 10.5C1.70049 10.5 1.00049 9.80003 1.00049 9.00003C1.00049 8.20003 1.70049 7.50003 2.50049 7.50003C3.30049 7.50003 4.00049 8.20003 4.00049 9.00003C4.00049 9.80003 3.30049 10.5 2.50049 10.5ZM15.5005 17C14.7005 17 14.0005 16.3 14.0005 15.5C14.0005 14.7 14.7005 14 15.5005 14C16.3005 14 17.0005 14.7 17.0005 15.5C17.0005 16.3 16.3005 17 15.5005 17Z" fill="white"/>
</svg>
