<svg width="34" height="8" viewBox="0 0 34 8" fill="none" xmlns="http://www.w3.org/2000/svg">
<path d="M1.00049 3.50003C0.724346 3.50003 0.500488 3.72389 0.500488 4.00003C0.500488 4.27617 0.724346 4.50003 1.00049 4.50003V3.50003ZM33.354 4.35358C33.5493 4.15832 33.5493 3.84174 33.354 3.64648L30.1721 0.464497C29.9768 0.269234 29.6602 0.269234 29.465 0.464497C29.2697 0.659759 29.2697 0.976341 29.465 1.1716L32.2934 4.00003L29.465 6.82846C29.2697 7.02372 29.2697 7.3403 29.465 7.53556C29.6602 7.73083 29.9768 7.73083 30.1721 7.53556L33.354 4.35358ZM1.00049 4.50003H33.0005V3.50003H1.00049V4.50003Z" fill="white"/>
</svg>
