<svg width="23" height="19" viewBox="0 0 23 19" fill="none" xmlns="http://www.w3.org/2000/svg">
<path d="M3.62939 18.2715H20.0767C20.979 18.2715 21.6729 18.0186 22.1582 17.5127C22.6504 17.0137 22.8965 16.2686 22.8965 15.2773V3.94678C22.8965 2.9624 22.6436 2.21729 22.1377 1.71143C21.6318 1.20557 20.8765 0.952637 19.8716 0.952637H3.43457C2.53223 0.952637 1.83496 1.20557 1.34277 1.71143C0.857422 2.21045 0.614746 2.95557 0.614746 3.94678V15.2773C0.614746 16.2686 0.867676 17.0137 1.37354 17.5127C1.87939 18.0186 2.63135 18.2715 3.62939 18.2715ZM3.60889 17.0615C3.02783 17.0615 2.5835 16.9111 2.27588 16.6104C1.9751 16.3096 1.82471 15.8618 1.82471 15.2671V3.95703C1.82471 3.3623 1.9751 2.91455 2.27588 2.61377C2.5835 2.31299 3.02783 2.1626 3.60889 2.1626H19.9023C20.4697 2.1626 20.9072 2.31299 21.2148 2.61377C21.5293 2.91455 21.6865 3.3623 21.6865 3.95703V15.2773C21.6865 15.8652 21.5293 16.3096 21.2148 16.6104C20.9072 16.9111 20.4697 17.0615 19.9023 17.0615H3.60889ZM11.7915 12.1602C12.1196 12.1602 12.4443 12.0884 12.7656 11.9448C13.0938 11.8013 13.4253 11.5688 13.7603 11.2476L22.1992 2.99316L21.3584 2.15234L13.0527 10.3247C12.8271 10.5435 12.6084 10.7007 12.3965 10.7964C12.1914 10.8921 11.9897 10.9399 11.7915 10.9399C11.6001 10.9399 11.395 10.8921 11.1763 10.7964C10.9644 10.6938 10.7524 10.5366 10.5405 10.3247L2.2041 2.12158L1.36328 2.9624L9.82275 11.2476C10.1577 11.5688 10.4893 11.8013 10.8174 11.9448C11.1455 12.0884 11.4702 12.1602 11.7915 12.1602ZM21.2456 17.0718L22.0762 16.2207L15.2163 9.53516L14.3857 10.3657L21.2456 17.0718ZM1.48633 16.2515L2.30664 17.1025L9.20752 10.3657L8.3667 9.53516L1.48633 16.2515Z" fill="#878787"/>
</svg>
