<svg width="11" height="11" viewBox="0 0 11 11" fill="none" xmlns="http://www.w3.org/2000/svg">
<path d="M5.77148 0.62793C6.44206 0.62793 7.07194 0.75651 7.66113 1.01367C8.25358 1.26758 8.77441 1.61914 9.22363 2.06836C9.67285 2.52083 10.026 3.04167 10.2832 3.63086C10.5404 4.22331 10.6689 4.85482 10.6689 5.52539C10.6689 6.19596 10.5404 6.82585 10.2832 7.41504C10.026 8.00749 9.67285 8.52832 9.22363 8.97754C8.77441 9.43001 8.25358 9.7832 7.66113 10.0371C7.06868 10.2943 6.43717 10.4229 5.7666 10.4229C5.09603 10.4229 4.46452 10.2943 3.87207 10.0371C3.28288 9.7832 2.76367 9.43001 2.31445 8.97754C1.86523 8.52832 1.51204 8.00749 1.25488 7.41504C1.00098 6.82585 0.874023 6.19596 0.874023 5.52539C0.874023 4.85482 1.00098 4.22331 1.25488 3.63086C1.51204 3.04167 1.86523 2.52083 2.31445 2.06836C2.76693 1.61914 3.28776 1.26758 3.87695 1.01367C4.4694 0.75651 5.10091 0.62793 5.77148 0.62793ZM5.77148 1.25781C5.17904 1.25781 4.62565 1.36849 4.11133 1.58984C3.59701 1.8112 3.14453 2.11719 2.75391 2.50781C2.36328 2.89844 2.05729 3.35091 1.83594 3.86523C1.61784 4.38281 1.50879 4.9362 1.50879 5.52539C1.50879 6.11458 1.61784 6.66634 1.83594 7.18066C2.05729 7.69824 2.36165 8.15234 2.74902 8.54297C3.13965 8.93685 3.59212 9.24284 4.10645 9.46094C4.62402 9.68229 5.17741 9.79297 5.7666 9.79297C6.35905 9.79297 6.91243 9.68229 7.42676 9.46094C7.94434 9.24284 8.39844 8.93685 8.78906 8.54297C9.17969 8.15234 9.48568 7.69824 9.70703 7.18066C9.92839 6.66634 10.0391 6.11458 10.0391 5.52539C10.0391 4.9362 9.92839 4.38281 9.70703 3.86523C9.48893 3.35091 9.18294 2.89844 8.78906 2.50781C8.39844 2.11719 7.94434 1.8112 7.42676 1.58984C6.91243 1.36849 6.36068 1.25781 5.77148 1.25781ZM5.53223 3.69922C5.59082 3.60482 5.6722 3.55762 5.77637 3.55762C5.88053 3.55762 5.96029 3.60482 6.01562 3.69922L7.68066 6.4873C7.73926 6.59147 7.74902 6.69076 7.70996 6.78516C7.6709 6.87956 7.59766 6.92676 7.49023 6.92676H4.04785C3.94368 6.92676 3.87207 6.87793 3.83301 6.78027C3.79395 6.68262 3.80371 6.58496 3.8623 6.4873L5.53223 3.69922Z" fill="black"/>
</svg>
