<svg width="22" height="23" viewBox="0 0 22 23" fill="none" xmlns="http://www.w3.org/2000/svg">
<path d="M3.85938 22.5898H18.5898C20.5039 22.5898 21.4609 21.9648 21.4609 20.7148C21.4609 19.9492 21.2266 19.1328 20.7578 18.2656C20.2891 17.3984 19.6094 16.582 18.7188 15.8164C17.8359 15.043 16.7617 14.4141 15.4961 13.9297C14.2383 13.4453 12.8164 13.2031 11.2305 13.2031C9.63672 13.2031 8.20703 13.4453 6.94141 13.9297C5.68359 14.4141 4.60938 15.043 3.71875 15.8164C2.83594 16.582 2.16016 17.3984 1.69141 18.2656C1.22266 19.1328 0.988281 19.9492 0.988281 20.7148C0.988281 21.9648 1.94531 22.5898 3.85938 22.5898ZM3.30859 20.8203C3.15234 20.8203 3.03906 20.7969 2.96875 20.75C2.90625 20.7031 2.875 20.6172 2.875 20.4922C2.875 20.0156 3.05469 19.4648 3.41406 18.8398C3.78125 18.207 4.32031 17.5977 5.03125 17.0117C5.74219 16.4258 6.61719 15.9414 7.65625 15.5586C8.69531 15.168 9.88672 14.9727 11.2305 14.9727C12.5742 14.9727 13.7617 15.168 14.793 15.5586C15.832 15.9414 16.707 16.4258 17.418 17.0117C18.1289 17.5977 18.6641 18.207 19.0234 18.8398C19.3906 19.4648 19.5742 20.0156 19.5742 20.4922C19.5742 20.6172 19.5391 20.7031 19.4688 20.75C19.4062 20.7969 19.3008 20.8203 19.1523 20.8203H3.30859ZM11.2305 11.75C12.1602 11.75 13.0078 11.5 13.7734 11C14.5391 10.5 15.1484 9.83594 15.6016 9.00781C16.0625 8.17188 16.293 7.25 16.293 6.24219C16.293 5.24219 16.0664 4.33984 15.6133 3.53516C15.1602 2.72266 14.5508 2.07813 13.7852 1.60156C13.0195 1.125 12.168 0.886719 11.2305 0.886719C10.3008 0.886719 9.45312 1.12891 8.6875 1.61328C7.92188 2.09766 7.30859 2.74609 6.84766 3.55859C6.39453 4.37109 6.16797 5.27344 6.16797 6.26562C6.16797 7.26562 6.39453 8.18359 6.84766 9.01953C7.30859 9.84766 7.92188 10.5117 8.6875 11.0117C9.45312 11.5039 10.3008 11.75 11.2305 11.75ZM11.2305 9.98047C10.6602 9.98047 10.1328 9.81641 9.64844 9.48828C9.17188 9.15234 8.78516 8.70312 8.48828 8.14062C8.19922 7.57812 8.05469 6.95313 8.05469 6.26562C8.05469 5.58594 8.19922 4.97656 8.48828 4.4375C8.77734 3.89062 9.16016 3.45703 9.63672 3.13672C10.1211 2.81641 10.6523 2.65625 11.2305 2.65625C11.8164 2.65625 12.3477 2.8125 12.8242 3.125C13.3086 3.4375 13.6914 3.86719 13.9727 4.41406C14.2617 4.95312 14.4062 5.5625 14.4062 6.24219C14.4062 6.92969 14.2617 7.55859 13.9727 8.12891C13.6836 8.69141 13.2969 9.14062 12.8125 9.47656C12.3359 9.8125 11.8086 9.98047 11.2305 9.98047Z" fill="#878787"/>
</svg>
