<svg width="26" height="20" viewBox="0 0 26 20" fill="none" xmlns="http://www.w3.org/2000/svg">
<path d="M15.832 6.37695H21.8799C22.0303 6.37695 22.1556 6.32682 22.2559 6.22656C22.3633 6.1263 22.417 6.00098 22.417 5.85059C22.417 5.7002 22.3633 5.57487 22.2559 5.47461C22.1556 5.37435 22.0303 5.32422 21.8799 5.32422H15.832C15.6745 5.32422 15.5456 5.37435 15.4453 5.47461C15.3451 5.57487 15.2949 5.7002 15.2949 5.85059C15.2949 6.00098 15.3451 6.1263 15.4453 6.22656C15.5456 6.32682 15.6745 6.37695 15.832 6.37695ZM15.832 10.792H21.8799C22.0303 10.792 22.1556 10.7419 22.2559 10.6416C22.3633 10.5342 22.417 10.4053 22.417 10.2549C22.417 10.1117 22.3633 9.98991 22.2559 9.88965C22.1556 9.78939 22.0303 9.73926 21.8799 9.73926H15.832C15.6745 9.73926 15.5456 9.78939 15.4453 9.88965C15.3451 9.98991 15.2949 10.1117 15.2949 10.2549C15.2949 10.4053 15.3451 10.5342 15.4453 10.6416C15.5456 10.7419 15.6745 10.792 15.832 10.792ZM15.832 15.1963H21.8799C22.0303 15.1963 22.1556 15.1462 22.2559 15.0459C22.3633 14.9456 22.417 14.8239 22.417 14.6807C22.417 14.5303 22.3633 14.4049 22.2559 14.3047C22.1556 14.1973 22.0303 14.1436 21.8799 14.1436H15.832C15.6745 14.1436 15.5456 14.1973 15.4453 14.3047C15.3451 14.4049 15.2949 14.5303 15.2949 14.6807C15.2949 14.8239 15.3451 14.9456 15.4453 15.0459C15.5456 15.1462 15.6745 15.1963 15.832 15.1963ZM4.34863 15.1963H13.082C13.2253 15.1963 13.3327 15.1497 13.4043 15.0566C13.4759 14.9635 13.5117 14.849 13.5117 14.7129C13.5117 14.4551 13.415 14.1185 13.2217 13.7031C13.0355 13.2806 12.7419 12.8581 12.3408 12.4355C11.9469 12.013 11.4456 11.6585 10.8369 11.3721C10.2354 11.0856 9.52637 10.9424 8.70996 10.9424C7.89355 10.9424 7.18457 11.0856 6.58301 11.3721C5.98145 11.6585 5.48014 12.013 5.0791 12.4355C4.68522 12.8581 4.3916 13.2806 4.19824 13.7031C4.00488 14.1185 3.9082 14.4551 3.9082 14.7129C3.9082 14.849 3.94401 14.9635 4.01562 15.0566C4.08724 15.1497 4.19824 15.1963 4.34863 15.1963ZM8.70996 10.1797C9.36882 10.1797 9.93099 9.93262 10.3965 9.43848C10.8691 8.94434 11.1055 8.32129 11.1055 7.56934C11.1055 7.10384 10.998 6.67773 10.7832 6.29102C10.5684 5.9043 10.2783 5.59635 9.91309 5.36719C9.55501 5.13086 9.15397 5.0127 8.70996 5.0127C8.27311 5.0127 7.87207 5.13086 7.50684 5.36719C7.1416 5.59635 6.85156 5.9043 6.63672 6.29102C6.42188 6.67773 6.31445 7.10384 6.31445 7.56934C6.31445 8.32129 6.5472 8.94434 7.0127 9.43848C7.48535 9.93262 8.05111 10.1797 8.70996 10.1797ZM3.89746 19.9658H22.7285C23.7812 19.9658 24.5726 19.7008 25.1025 19.1709C25.6325 18.6481 25.8975 17.8711 25.8975 16.8398V3.65918C25.8975 2.63509 25.6325 1.85807 25.1025 1.32812C24.5726 0.791016 23.7812 0.522461 22.7285 0.522461H3.89746C2.85189 0.522461 2.06413 0.787435 1.53418 1.31738C1.00423 1.84017 0.739258 2.62077 0.739258 3.65918V16.8398C0.739258 17.8711 1.00423 18.6481 1.53418 19.1709C2.06413 19.7008 2.85189 19.9658 3.89746 19.9658ZM3.92969 18.6445C3.32096 18.6445 2.85547 18.487 2.5332 18.1719C2.2181 17.8568 2.06055 17.3877 2.06055 16.7646V3.73438C2.06055 3.11133 2.2181 2.64225 2.5332 2.32715C2.85547 2.00488 3.32096 1.84375 3.92969 1.84375H22.707C23.3014 1.84375 23.7598 2.00488 24.082 2.32715C24.4043 2.64225 24.5654 3.11133 24.5654 3.73438V16.7646C24.5654 17.3877 24.4043 17.8568 24.082 18.1719C23.7598 18.487 23.3014 18.6445 22.707 18.6445H3.92969Z" fill="#878787"/>
</svg>
