<svg width="20" height="20" viewBox="0 0 20 20" fill="none" xmlns="http://www.w3.org/2000/svg">
<path d="M3.4043 19.5039H14.6543C15.4876 19.5039 16.1224 19.2793 16.5586 18.8301C17.0013 18.3874 17.2227 17.7396 17.2227 16.8867V6.49609L16.5098 7.20898V16.8477C16.5098 17.4857 16.3405 17.9674 16.002 18.293C15.6699 18.625 15.2142 18.791 14.6348 18.791H3.43359C2.79557 18.791 2.3138 18.625 1.98828 18.293C1.66276 17.9674 1.5 17.4857 1.5 16.8477V5.72461C1.5 5.08008 1.66276 4.59505 1.98828 4.26953C2.3138 3.9375 2.79557 3.77148 3.43359 3.77148H13.1016L13.8242 3.05859H3.4043C2.53841 3.05859 1.88411 3.27995 1.44141 3.72266C0.998698 4.16536 0.777344 4.81966 0.777344 5.68555V16.8867C0.777344 17.7461 0.998698 18.3971 1.44141 18.8398C1.88411 19.2826 2.53841 19.5039 3.4043 19.5039ZM7.57422 12.8633L8.94141 12.209L18.0332 3.12695L17.1836 2.26758L8.10156 11.3496L7.4082 12.6875C7.38216 12.7396 7.38867 12.7884 7.42773 12.834C7.47331 12.873 7.52214 12.8828 7.57422 12.8633ZM18.5996 2.56055L19.1465 2.01367C19.2832 1.87044 19.3548 1.73047 19.3613 1.59375C19.3678 1.45052 19.306 1.31055 19.1758 1.17383L19.1074 1.10547C18.9902 0.988281 18.8568 0.936198 18.707 0.949219C18.5573 0.955729 18.4173 1.02734 18.2871 1.16406L17.7402 1.70117L18.5996 2.56055Z" fill="black"/>
</svg>
