<svg width="20" height="21" viewBox="0 0 20 21" fill="none" xmlns="http://www.w3.org/2000/svg">
<path d="M10 20.9102C11.3607 20.9102 12.64 20.6497 13.8379 20.1289C15.0423 19.6081 16.1035 18.8887 17.0215 17.9707C17.9395 17.0527 18.6589 15.9948 19.1797 14.7969C19.7005 13.5924 19.9609 12.3099 19.9609 10.9492C19.9609 9.58854 19.7005 8.30924 19.1797 7.11133C18.6589 5.9069 17.9395 4.8457 17.0215 3.92773C16.1035 3.00977 15.0423 2.29036 13.8379 1.76953C12.6335 1.2487 11.3509 0.988281 9.99023 0.988281C8.62956 0.988281 7.34701 1.2487 6.14258 1.76953C4.94466 2.29036 3.88672 3.00977 2.96875 3.92773C2.05729 4.8457 1.34115 5.9069 0.820312 7.11133C0.299479 8.30924 0.0390625 9.58854 0.0390625 10.9492C0.0390625 12.3099 0.299479 13.5924 0.820312 14.7969C1.34115 15.9948 2.06055 17.0527 2.97852 17.9707C3.89648 18.8887 4.95443 19.6081 6.15234 20.1289C7.35677 20.6497 8.63932 20.9102 10 20.9102ZM6.71875 15.0508C6.4974 15.0508 6.30859 14.9727 6.15234 14.8164C5.99609 14.6536 5.91797 14.4616 5.91797 14.2402C5.91797 14.0189 5.99609 13.8301 6.15234 13.6738L8.86719 10.959L6.15234 8.25391C5.99609 8.09115 5.91797 7.90234 5.91797 7.6875C5.91797 7.45964 5.99609 7.27083 6.15234 7.12109C6.30859 6.96484 6.4974 6.88672 6.71875 6.88672C6.93359 6.88672 7.1224 6.96159 7.28516 7.11133L10.0098 9.82617L12.7539 7.10156C12.9102 6.94531 13.0957 6.86719 13.3105 6.86719C13.5319 6.86719 13.7207 6.94531 13.877 7.10156C14.0332 7.25781 14.1113 7.44661 14.1113 7.66797C14.1113 7.88932 14.0332 8.08138 13.877 8.24414L11.1523 10.959L13.8672 13.6641C14.0234 13.8073 14.1016 13.9993 14.1016 14.2402C14.1016 14.4616 14.0234 14.6536 13.8672 14.8164C13.7109 14.9727 13.5189 15.0508 13.291 15.0508C13.0566 15.0508 12.8646 14.9727 12.7148 14.8164L10.0098 12.1016L7.31445 14.8164C7.15169 14.9727 6.95312 15.0508 6.71875 15.0508Z" fill="#E40521"/>
</svg>
