<svg width="14" height="17" viewBox="0 0 14 17" fill="none" xmlns="http://www.w3.org/2000/svg">
<path d="M7 14.45C6.7375 14.45 6.5625 14.28 6.5625 14.025V8.075C6.5625 7.82 6.7375 7.65 7 7.65C7.2625 7.65 7.4375 7.82 7.4375 8.075V14.025C7.4375 14.28 7.2625 14.45 7 14.45ZM14 2.975V3.825C14 4.07999 13.825 4.25 13.5625 4.25H0.4375C0.175011 4.25 0 4.07999 0 3.825V2.975C0 2.29501 0.612511 1.7 1.3125 1.7H3.9375V1.275C3.9375 0.59501 4.55001 0 5.25 0H8.75C9.44999 0 10.0625 0.59501 10.0625 1.275V1.7H12.6875C13.3875 1.7 14 2.29501 14 2.975ZM4.8125 1.7H9.1875V1.275C9.1875 1.02001 9.01249 0.85 8.75 0.85H5.25C4.98751 0.85 4.8125 1.02001 4.8125 1.275V1.7ZM13.125 2.975C13.125 2.72001 12.95 2.55 12.6875 2.55H1.3125C1.05001 2.55 0.875 2.72001 0.875 2.975V3.4H13.125V2.975ZM10.0612 14.0553L10.4987 8.1053C10.5162 7.87122 10.3347 7.66785 10.0937 7.65125C9.84674 7.63464 9.64294 7.81062 9.62628 8.0447L9.18878 13.9947C9.17126 14.2288 9.35284 14.4322 9.59381 14.4488C9.60449 14.4496 9.61517 14.45 9.62543 14.45C9.85272 14.45 10.045 14.279 10.0612 14.0553ZM4.40619 14.4488C4.64716 14.4322 4.82874 14.2288 4.81122 13.9947L4.37372 8.0447C4.35663 7.81062 4.15326 7.63215 3.90631 7.65125C3.66534 7.66785 3.48376 7.87122 3.50128 8.1053L3.93878 14.0553C3.95502 14.279 4.14728 14.45 4.37457 14.45C4.38483 14.45 4.39551 14.4496 4.40619 14.4488ZM13.0914 5.525C13.0914 5.2903 12.8955 5.1 12.6539 5.1C12.4122 5.1 12.2164 5.2903 12.2164 5.525C12.2164 5.52557 12.2165 5.52614 12.2165 5.52671L11.4933 15.3605C11.4608 15.8032 11.0774 16.15 10.6205 16.15H3.37946C2.92263 16.15 2.53923 15.8032 2.50665 15.3605L1.81473 5.95H1.81478L1.78359 5.52583C1.78359 5.52552 1.78365 5.52531 1.78365 5.525C1.78365 5.2903 1.58775 5.1 1.34615 5.1C1.10454 5.1 0.908646 5.2903 0.908646 5.525H0.907898C0.907898 5.53506 0.907738 5.54508 0.908485 5.5553L1.6339 15.4211C1.69932 16.3107 2.46136 17 3.37946 17H10.6205C11.5386 17 12.3007 16.3107 12.3661 15.4211L13.0915 5.5553C13.0923 5.54508 13.0921 5.53506 13.0921 5.525H13.0914Z" fill="white"/>
</svg>
