<svg width="20" height="21" viewBox="0 0 20 21" fill="none" xmlns="http://www.w3.org/2000/svg">
<path d="M10 20.9102C11.3607 20.9102 12.64 20.6497 13.8379 20.1289C15.0423 19.6081 16.1035 18.8887 17.0215 17.9707C17.9395 17.0527 18.6589 15.9948 19.1797 14.7969C19.7005 13.5924 19.9609 12.3099 19.9609 10.9492C19.9609 9.58854 19.7005 8.30924 19.1797 7.11133C18.6589 5.9069 17.9395 4.8457 17.0215 3.92773C16.1035 3.00977 15.0423 2.29036 13.8379 1.76953C12.6335 1.2487 11.3509 0.988281 9.99023 0.988281C8.62956 0.988281 7.34701 1.2487 6.14258 1.76953C4.94466 2.29036 3.88672 3.00977 2.96875 3.92773C2.05729 4.8457 1.34115 5.9069 0.820312 7.11133C0.299479 8.30924 0.0390625 9.58854 0.0390625 10.9492C0.0390625 12.3099 0.299479 13.5924 0.820312 14.7969C1.34115 15.9948 2.06055 17.0527 2.97852 17.9707C3.89648 18.8887 4.95443 19.6081 6.15234 20.1289C7.35677 20.6497 8.63932 20.9102 10 20.9102ZM8.90625 15.7148C8.73698 15.7148 8.58398 15.679 8.44727 15.6074C8.31055 15.5358 8.17708 15.4154 8.04688 15.2461L5.5957 12.2383C5.52409 12.1406 5.46549 12.0397 5.41992 11.9355C5.38086 11.8249 5.36133 11.7142 5.36133 11.6035C5.36133 11.3822 5.4362 11.1934 5.58594 11.0371C5.73568 10.8743 5.92122 10.793 6.14258 10.793C6.28581 10.793 6.41276 10.8223 6.52344 10.8809C6.64062 10.9395 6.76107 11.0501 6.88477 11.2129L8.86719 13.7715L13.0371 7.07227C13.2194 6.77279 13.4538 6.62305 13.7402 6.62305C13.9486 6.62305 14.1374 6.69141 14.3066 6.82812C14.4759 6.95833 14.5605 7.13737 14.5605 7.36523C14.5605 7.47591 14.5345 7.58659 14.4824 7.69727C14.4303 7.80794 14.375 7.91211 14.3164 8.00977L9.72656 15.2461C9.6224 15.4023 9.50195 15.5195 9.36523 15.5977C9.22852 15.6758 9.07552 15.7148 8.90625 15.7148Z" fill="#449E0D"/>
</svg>
