<svg width="21" height="21" viewBox="0 0 21 21" fill="none" xmlns="http://www.w3.org/2000/svg">
<path d="M10.709 20.9102C12.0697 20.9102 13.349 20.6497 14.5469 20.1289C15.7513 19.6081 16.8125 18.8887 17.7305 17.9707C18.6484 17.0527 19.3678 15.9948 19.8887 14.7969C20.4095 13.5924 20.6699 12.3099 20.6699 10.9492C20.6699 9.95312 20.5299 9.00586 20.25 8.10742C19.9701 7.20898 19.5859 6.38542 19.0977 5.63672C18.6094 4.88151 18.0527 4.21745 17.4277 3.64453C17.2585 3.48828 17.0827 3.40365 16.9004 3.39062C16.7246 3.37109 16.5651 3.40365 16.4219 3.48828C16.2786 3.57292 16.168 3.6901 16.0898 3.83984C16.0117 3.98958 15.9857 4.15234 16.0117 4.32812C16.0443 4.50391 16.1452 4.67318 16.3145 4.83594C17.1478 5.59115 17.8021 6.49609 18.2773 7.55078C18.7591 8.59896 19.0033 9.73177 19.0098 10.9492C19.0098 12.1016 18.7949 13.179 18.3652 14.1816C17.9421 15.1842 17.3496 16.0664 16.5879 16.8281C15.8327 17.5833 14.9505 18.1758 13.9414 18.6055C12.9388 19.0352 11.8613 19.25 10.709 19.25C9.55664 19.25 8.47917 19.0352 7.47656 18.6055C6.47396 18.1758 5.5918 17.5833 4.83008 16.8281C4.07487 16.0664 3.48242 15.1842 3.05273 14.1816C2.62956 13.179 2.41797 12.1016 2.41797 10.9492C2.42448 9.72526 2.66536 8.58919 3.14062 7.54102C3.6224 6.48633 4.27669 5.58138 5.10352 4.82617C5.27279 4.66341 5.37044 4.49414 5.39648 4.31836C5.42904 4.14258 5.40625 3.97982 5.32812 3.83008C5.25651 3.68034 5.14583 3.56315 4.99609 3.47852C4.85286 3.39388 4.6901 3.36133 4.50781 3.38086C4.33203 3.39388 4.15951 3.47852 3.99023 3.63477C3.36523 4.20768 2.80859 4.87174 2.32031 5.62695C1.83203 6.38216 1.44792 7.20898 1.16797 8.10742C0.888021 9.00586 0.748047 9.95312 0.748047 10.9492C0.748047 12.3099 1.00846 13.5924 1.5293 14.7969C2.05013 15.9948 2.76953 17.0527 3.6875 17.9707C4.60547 18.8887 5.66341 19.6081 6.86133 20.1289C8.06576 20.6497 9.34831 20.9102 10.709 20.9102ZM10.709 10.8516C10.9434 10.8516 11.1322 10.7767 11.2754 10.627C11.4251 10.4707 11.5 10.2689 11.5 10.0215V1.25195C11.5 1.00456 11.4251 0.80599 11.2754 0.65625C11.1322 0.5 10.9434 0.421875 10.709 0.421875C10.4746 0.421875 10.2858 0.5 10.1426 0.65625C9.99935 0.80599 9.92773 1.00456 9.92773 1.25195V10.0215C9.92773 10.2689 9.99935 10.4707 10.1426 10.627C10.2858 10.7767 10.4746 10.8516 10.709 10.8516Z" fill="#E40823"/>
</svg>
