<svg width="11" height="11" viewBox="0 0 11 11" fill="none" xmlns="http://www.w3.org/2000/svg">
<path d="M5.77148 10.3721C6.44206 10.3721 7.07194 10.2435 7.66113 9.98633C8.25358 9.73242 8.77441 9.38086 9.22363 8.93164C9.67285 8.47917 10.026 7.95833 10.2832 7.36914C10.5404 6.77669 10.6689 6.14518 10.6689 5.47461C10.6689 4.80404 10.5404 4.17415 10.2832 3.58496C10.026 2.99251 9.67285 2.47168 9.22363 2.02246C8.77441 1.56999 8.25358 1.2168 7.66113 0.962891C7.06868 0.705729 6.43717 0.577148 5.7666 0.577148C5.09603 0.577148 4.46452 0.705729 3.87207 0.962891C3.28288 1.2168 2.76367 1.56999 2.31445 2.02246C1.86523 2.47168 1.51204 2.99251 1.25488 3.58496C1.00098 4.17415 0.874023 4.80404 0.874023 5.47461C0.874023 6.14518 1.00098 6.77669 1.25488 7.36914C1.51204 7.95833 1.86523 8.47917 2.31445 8.93164C2.76693 9.38086 3.28776 9.73242 3.87695 9.98633C4.4694 10.2435 5.10091 10.3721 5.77148 10.3721ZM5.77148 9.74219C5.17904 9.74219 4.62565 9.63151 4.11133 9.41016C3.59701 9.1888 3.14453 8.88281 2.75391 8.49219C2.36328 8.10156 2.05729 7.64909 1.83594 7.13477C1.61784 6.61719 1.50879 6.0638 1.50879 5.47461C1.50879 4.88542 1.61784 4.33366 1.83594 3.81934C2.05729 3.30176 2.36165 2.84766 2.74902 2.45703C3.13965 2.06315 3.59212 1.75716 4.10645 1.53906C4.62402 1.31771 5.17741 1.20703 5.7666 1.20703C6.35905 1.20703 6.91243 1.31771 7.42676 1.53906C7.94434 1.75716 8.39844 2.06315 8.78906 2.45703C9.17969 2.84766 9.48568 3.30176 9.70703 3.81934C9.92839 4.33366 10.0391 4.88542 10.0391 5.47461C10.0391 6.0638 9.92839 6.61719 9.70703 7.13477C9.48893 7.64909 9.18294 8.10156 8.78906 8.49219C8.39844 8.88281 7.94434 9.1888 7.42676 9.41016C6.91243 9.63151 6.36068 9.74219 5.77148 9.74219ZM5.53223 7.30078C5.59082 7.39518 5.6722 7.44238 5.77637 7.44238C5.88053 7.44238 5.96029 7.39518 6.01562 7.30078L7.68066 4.5127C7.73926 4.40853 7.74902 4.30924 7.70996 4.21484C7.6709 4.12044 7.59766 4.07324 7.49023 4.07324H4.04785C3.94368 4.07324 3.87207 4.12207 3.83301 4.21973C3.79395 4.31738 3.80371 4.41504 3.8623 4.5127L5.53223 7.30078Z" fill="black"/>
</svg>
