<svg width="28" height="28" viewBox="0 0 28 28" fill="none" xmlns="http://www.w3.org/2000/svg">
<path d="M13.8711 27.2656C21.2344 27.2656 27.2773 21.21 27.2773 13.8594C27.2773 6.49609 21.2217 0.453125 13.8711 0.453125C6.50781 0.453125 0.464844 6.49609 0.464844 13.8594C0.464844 21.21 6.52051 27.2656 13.8711 27.2656ZM20.1172 8.9209L18.8857 7.68945L19.4951 7.09277C19.7871 6.80078 20.2568 6.7627 20.5488 7.05469L20.7266 7.23242C21.0186 7.51172 21.0059 7.95605 20.7266 8.26074L20.1172 8.9209ZM9.88477 20.2578C8.4502 20.2578 7.53613 19.3564 7.53613 17.9219V10.4062C7.53613 8.98438 8.4502 8.05762 9.88477 8.05762H16.7402L15.0137 9.75879H9.91016C9.50391 9.75879 9.2373 10.0127 9.2373 10.4824V17.833C9.2373 18.29 9.50391 18.5439 9.91016 18.5439H17.5527C17.8066 18.5439 18.0225 18.29 18.0225 17.833V12.8438L19.7109 11.1426V17.9219C19.7109 19.3564 18.835 20.2578 17.5654 20.2578H9.88477ZM12.2842 15.9668C11.9922 16.0938 11.6494 15.7764 11.8018 15.4717L12.4365 14.1895L18.2256 8.3623L19.4697 9.58105L13.6553 15.4082L12.2842 15.9668Z" fill="#8094CA"/>
</svg>
