<svg width="18" height="24" viewBox="0 0 18 24" fill="none" xmlns="http://www.w3.org/2000/svg">
<path d="M3.36084 23.5391H15.043C15.7591 23.5391 16.3369 23.3112 16.7764 22.8555C17.2158 22.3997 17.4355 21.7894 17.4355 21.0244V11.9058C17.4355 11.1326 17.2158 10.5223 16.7764 10.0747C16.3369 9.61898 15.7591 9.39111 15.043 9.39111H3.36084C2.64469 9.39111 2.06689 9.61898 1.62744 10.0747C1.19613 10.5223 0.980469 11.1326 0.980469 11.9058V21.0244C0.980469 21.7894 1.19613 22.3997 1.62744 22.8555C2.06689 23.3112 2.64469 23.5391 3.36084 23.5391ZM3.32422 22.6602C2.90918 22.6602 2.56738 22.5137 2.29883 22.2207C2.03841 21.9277 1.9082 21.5493 1.9082 21.0854V11.8447C1.9082 11.3727 2.03841 10.9902 2.29883 10.6973C2.56738 10.4043 2.90918 10.2578 3.32422 10.2578H15.0796C15.4946 10.2578 15.8324 10.4043 16.0928 10.6973C16.3613 10.9902 16.4956 11.3727 16.4956 11.8447V21.0854C16.4956 21.5493 16.3613 21.9277 16.0928 22.2207C15.8324 22.5137 15.4946 22.6602 15.0796 22.6602H3.32422ZM3.22656 9.79395H4.14209V6.60791C4.14209 5.50114 4.35775 4.53271 4.78906 3.70264C5.22038 2.87256 5.81445 2.22965 6.57129 1.77393C7.32812 1.31006 8.20296 1.07812 9.1958 1.07812C10.1968 1.07812 11.0757 1.31006 11.8325 1.77393C12.5894 2.22965 13.1834 2.87256 13.6147 3.70264C14.0542 4.53271 14.2739 5.50114 14.2739 6.60791V9.79395H15.1772V6.63232C15.1772 5.33024 14.9209 4.19906 14.4082 3.23877C13.8955 2.27848 13.1875 1.53385 12.2842 1.00488C11.389 0.475911 10.3595 0.211426 9.1958 0.211426C8.04834 0.211426 7.02295 0.475911 6.11963 1.00488C5.22445 1.53385 4.51644 2.27848 3.99561 3.23877C3.48291 4.19906 3.22656 5.33024 3.22656 6.63232V9.79395Z" fill="#BCBCBC"/>
</svg>
